<svg xmlns="http://www.w3.org/2000/svg" xmlns:xlink="http://www.w3.org/1999/xlink" width="1024" zoomAndPan="magnify" viewBox="0 0 768 383.999986" height="512" preserveAspectRatio="xMidYMid meet" version="1.0"><defs><g/><clipPath id="16c7259fb7"><path d="M 212.691406 176.78125 L 356.683594 176.78125 L 356.683594 253.28125 L 212.691406 253.28125 Z M 212.691406 176.78125 " clip-rule="nonzero"/></clipPath><clipPath id="7aa2cf6355"><path d="M 239.757812 176.78125 L 329.613281 176.78125 C 344.5625 176.78125 356.679688 188.855469 356.679688 203.75 L 356.679688 226.316406 C 356.679688 241.210938 344.5625 253.28125 329.613281 253.28125 L 239.757812 253.28125 C 224.808594 253.28125 212.691406 241.210938 212.691406 226.316406 L 212.691406 203.75 C 212.691406 188.855469 224.808594 176.78125 239.757812 176.78125 " clip-rule="nonzero"/></clipPath><clipPath id="3994095e09"><path d="M 38.40625 176.78125 L 182.398438 176.78125 L 182.398438 253.28125 L 38.40625 253.28125 Z M 38.40625 176.78125 " clip-rule="nonzero"/></clipPath><clipPath id="9c5a9af3bf"><path d="M 65.472656 176.78125 L 155.328125 176.78125 C 170.277344 176.78125 182.394531 188.855469 182.394531 203.75 L 182.394531 226.316406 C 182.394531 241.210938 170.277344 253.28125 155.328125 253.28125 L 65.472656 253.28125 C 50.523438 253.28125 38.40625 241.210938 38.40625 226.316406 L 38.40625 203.75 C 38.40625 188.855469 50.523438 176.78125 65.472656 176.78125 " clip-rule="nonzero"/></clipPath><clipPath id="9c29bb4ddb"><path d="M 386.761719 176.78125 L 530.757812 176.78125 L 530.757812 253.28125 L 386.761719 253.28125 Z M 386.761719 176.78125 " clip-rule="nonzero"/></clipPath><clipPath id="0d68270e3f"><path d="M 413.828125 176.78125 L 503.683594 176.78125 C 518.632812 176.78125 530.75 188.855469 530.75 203.75 L 530.75 226.316406 C 530.75 241.210938 518.632812 253.28125 503.683594 253.28125 L 413.828125 253.28125 C 398.878906 253.28125 386.761719 241.210938 386.761719 226.316406 L 386.761719 203.75 C 386.761719 188.855469 398.878906 176.78125 413.828125 176.78125 " clip-rule="nonzero"/></clipPath><clipPath id="3e44358ac6"><path d="M 585.964844 81.253906 L 729.957031 81.253906 L 729.957031 157.753906 L 585.964844 157.753906 Z M 585.964844 81.253906 " clip-rule="nonzero"/></clipPath><clipPath id="e0fe8d2ed3"><path d="M 613.03125 81.253906 L 702.886719 81.253906 C 717.835938 81.253906 729.953125 93.328125 729.953125 108.222656 L 729.953125 130.785156 C 729.953125 145.679688 717.835938 157.753906 702.886719 157.753906 L 613.03125 157.753906 C 598.082031 157.753906 585.964844 145.679688 585.964844 130.785156 L 585.964844 108.222656 C 585.964844 93.328125 598.082031 81.253906 613.03125 81.253906 " clip-rule="nonzero"/></clipPath><clipPath id="adb4547dc1"><path d="M 585.964844 269.007812 L 729.957031 269.007812 L 729.957031 345.507812 L 585.964844 345.507812 Z M 585.964844 269.007812 " clip-rule="nonzero"/></clipPath><clipPath id="a7b499d8ca"><path d="M 613.03125 269.007812 L 702.886719 269.007812 C 717.835938 269.007812 729.953125 281.082031 729.953125 295.976562 L 729.953125 318.539062 C 729.953125 333.433594 717.835938 345.507812 702.886719 345.507812 L 613.03125 345.507812 C 598.082031 345.507812 585.964844 333.433594 585.964844 318.539062 L 585.964844 295.976562 C 585.964844 281.082031 598.082031 269.007812 613.03125 269.007812 " clip-rule="nonzero"/></clipPath><clipPath id="66129560ef"><path d="M 585.96875 176.078125 L 729.957031 176.078125 L 729.957031 251.078125 L 585.96875 251.078125 Z M 585.96875 176.078125 " clip-rule="nonzero"/></clipPath><clipPath id="1996610cfa"><path d="M 613.03125 176.078125 L 702.886719 176.078125 C 717.832031 176.078125 729.949219 188.1875 729.949219 203.128906 L 729.949219 224.027344 C 729.949219 238.96875 717.832031 251.078125 702.886719 251.078125 L 613.03125 251.078125 C 598.082031 251.078125 585.96875 238.96875 585.96875 224.027344 L 585.96875 203.128906 C 585.96875 188.1875 598.082031 176.078125 613.03125 176.078125 " clip-rule="nonzero"/></clipPath><clipPath id="da11752bbd"><path d="M 38.398438 319.171875 L 65 319.171875 L 65 345.421875 L 38.398438 345.421875 Z M 38.398438 319.171875 " clip-rule="nonzero"/></clipPath><clipPath id="e7d5b462eb"><path d="M 143 328 L 155.398438 328 L 155.398438 345.421875 L 143 345.421875 Z M 143 328 " clip-rule="nonzero"/></clipPath></defs><rect x="-76.8" width="921.6" fill="#ffffff" y="-38.399999" height="460.799983" fill-opacity="1"/><rect x="-76.8" width="921.6" fill="#ffffff" y="-38.399999" height="460.799983" fill-opacity="1"/><rect x="-76.8" width="921.6" fill="#001f3d" y="-38.399999" height="460.799983" fill-opacity="1"/><g clip-path="url(#16c7259fb7)"><g clip-path="url(#7aa2cf6355)"><path stroke-linecap="butt" transform="matrix(0.751897, 0, 0, 0.749197, 212.691634, 176.7831)" fill="none" stroke-linejoin="miter" d="M 35.997199 -0.00246985 L 155.502254 -0.00246985 C 175.384262 -0.00246985 191.499755 16.113753 191.499755 35.994425 L 191.499755 66.115234 C 191.499755 85.995906 175.384262 102.106915 155.502254 102.106915 L 35.997199 102.106915 C 16.11519 102.106915 -0.000302318 85.995906 -0.000302318 66.115234 L -0.000302318 35.994425 C -0.000302318 16.113753 16.11519 -0.00246985 35.997199 -0.00246985 " stroke="#ed5b2d" stroke-width="6" stroke-opacity="1" stroke-miterlimit="4"/></g></g><g fill="#f8dcbf" fill-opacity="1"><g transform="translate(245.298305, 218.783097)"><g><path d="M 1.160156 0 L 7.421875 0 C 10.378906 0 12.078125 -1.390625 12.078125 -3.808594 C 12.078125 -5.527344 11.152344 -6.6875 9.507812 -7.035156 L 9.507812 -7.054688 C 10.863281 -7.421875 11.65625 -8.464844 11.65625 -9.953125 C 11.65625 -12.292969 10.109375 -13.625 7.402344 -13.625 L 1.160156 -13.625 Z M 2.765625 -7.730469 L 2.765625 -12.195312 L 7.210938 -12.195312 C 9.027344 -12.195312 10.070312 -11.363281 10.070312 -9.953125 C 10.070312 -8.542969 9.027344 -7.730469 7.210938 -7.730469 Z M 2.765625 -1.429688 L 2.765625 -6.300781 L 7.210938 -6.300781 C 9.277344 -6.300781 10.496094 -5.410156 10.496094 -3.886719 C 10.496094 -2.320312 9.277344 -1.429688 7.210938 -1.429688 Z M 2.765625 -1.429688 "/></g></g></g><g fill="#f8dcbf" fill-opacity="1"><g transform="translate(257.955687, 218.783097)"><g><path d="M 4.484375 0.386719 C 6.183594 0.386719 7.402344 -0.269531 8.234375 -1.449219 L 8.253906 -1.449219 L 8.386719 0 L 9.722656 0 L 9.722656 -9.761719 L 8.253906 -9.761719 L 8.253906 -4.253906 C 8.253906 -2.261719 6.84375 -0.890625 4.890625 -0.890625 C 3.34375 -0.890625 2.359375 -1.953125 2.359375 -3.613281 L 2.359375 -9.761719 L 0.871094 -9.761719 L 0.871094 -3.460938 C 0.871094 -1.042969 2.242188 0.386719 4.484375 0.386719 Z M 4.484375 0.386719 "/></g></g></g><g fill="#f8dcbf" fill-opacity="1"><g transform="translate(268.641996, 218.783097)"><g><path d="M 6.203125 -10.148438 C 4.503906 -10.148438 3.285156 -9.488281 2.453125 -8.3125 L 2.433594 -8.3125 L 2.300781 -9.761719 L 0.964844 -9.761719 L 0.964844 0 L 2.433594 0 L 2.433594 -5.507812 C 2.433594 -7.5 3.847656 -8.871094 5.796875 -8.871094 C 7.34375 -8.871094 8.332031 -7.808594 8.332031 -6.144531 L 8.332031 0 L 9.820312 0 L 9.820312 -6.300781 C 9.820312 -8.714844 8.445312 -10.148438 6.203125 -10.148438 Z M 6.203125 -10.148438 "/></g></g></g><g fill="#f8dcbf" fill-opacity="1"><g transform="translate(279.328305, 218.783097)"><g><path d="M 5.546875 0.386719 C 7.171875 0.386719 8.523438 -0.386719 9.355469 -1.679688 L 9.375 -1.679688 L 9.507812 0 L 10.804688 0 L 10.804688 -14.207031 L 9.316406 -14.207031 L 9.316406 -8.117188 L 9.296875 -8.117188 C 8.464844 -9.394531 7.152344 -10.148438 5.527344 -10.148438 C 2.667969 -10.148438 0.578125 -7.925781 0.578125 -4.871094 C 0.578125 -1.835938 2.6875 0.386719 5.546875 0.386719 Z M 5.722656 -0.945312 C 3.613281 -0.945312 2.046875 -2.628906 2.046875 -4.871094 C 2.046875 -7.09375 3.59375 -8.792969 5.722656 -8.792969 C 7.828125 -8.792969 9.375 -7.09375 9.375 -4.871094 C 9.375 -2.667969 7.828125 -0.945312 5.722656 -0.945312 Z M 5.722656 -0.945312 "/></g></g></g><g fill="#f8dcbf" fill-opacity="1"><g transform="translate(291.096767, 218.783097)"><g><path d="M 0.964844 0 L 2.433594 0 L 2.433594 -14.207031 L 0.964844 -14.207031 Z M 0.964844 0 "/></g></g></g><g fill="#f8dcbf" fill-opacity="1"><g transform="translate(294.497837, 218.783097)"><g><path d="M 5.972656 0.386719 C 8.15625 0.386719 9.992188 -0.714844 10.628906 -2.28125 L 9.355469 -2.800781 C 8.8125 -1.738281 7.519531 -0.945312 5.992188 -0.945312 C 3.886719 -0.945312 2.320312 -2.359375 2.105469 -4.386719 L 10.320312 -4.386719 C 10.339844 -4.582031 10.339844 -4.792969 10.339844 -4.96875 C 10.300781 -7.980469 8.425781 -10.148438 5.566406 -10.148438 C 2.667969 -10.148438 0.578125 -7.980469 0.578125 -4.988281 C 0.578125 -1.875 2.859375 0.386719 5.972656 0.386719 Z M 2.125 -5.683594 C 2.398438 -7.539062 3.730469 -8.792969 5.546875 -8.792969 C 7.324219 -8.792969 8.582031 -7.671875 8.773438 -5.683594 Z M 2.125 -5.683594 "/></g></g></g><g fill="#f8dcbf" fill-opacity="1"><g transform="translate(305.589953, 218.783097)"><g><path d="M 5.199219 -10.167969 C 3.960938 -10.167969 2.917969 -9.414062 2.378906 -8.234375 L 2.359375 -8.234375 L 2.222656 -9.761719 L 0.964844 -9.761719 L 0.964844 0 L 2.433594 0 L 2.433594 -5.371094 C 2.433594 -7.5 3.421875 -8.792969 4.988281 -8.792969 C 6.050781 -8.792969 6.765625 -8.058594 6.917969 -6.6875 L 8.195312 -7.113281 C 8 -9.066406 6.859375 -10.167969 5.199219 -10.167969 Z M 5.199219 -10.167969 "/></g></g></g><g fill="#f8dcbf" fill-opacity="1"><g transform="translate(314.16992, 218.783097)"><g><path d="M 5.003906 0.386719 C 7.363281 0.386719 9.140625 -0.964844 9.140625 -2.800781 C 9.140625 -4.253906 8.15625 -5.0625 5.855469 -5.546875 L 4.269531 -5.855469 C 2.917969 -6.144531 2.339844 -6.550781 2.339844 -7.265625 C 2.359375 -8.097656 3.265625 -8.851562 4.503906 -8.851562 C 5.894531 -8.851562 6.917969 -8.097656 7.054688 -7.074219 L 8.464844 -7.460938 C 8.097656 -9.046875 6.570312 -10.148438 4.523438 -10.148438 C 2.433594 -10.148438 0.925781 -8.890625 0.910156 -7.191406 C 0.910156 -5.757812 1.777344 -4.949219 3.808594 -4.523438 L 5.355469 -4.214844 C 6.996094 -3.886719 7.710938 -3.421875 7.710938 -2.667969 C 7.710938 -1.664062 6.53125 -0.945312 5.003906 -0.945312 C 3.265625 -0.945312 1.953125 -1.894531 1.835938 -3.246094 L 0.386719 -2.957031 C 0.558594 -0.871094 2.570312 0.386719 5.003906 0.386719 Z M 5.003906 0.386719 "/></g></g></g><g clip-path="url(#3994095e09)"><g clip-path="url(#9c5a9af3bf)"><path stroke-linecap="butt" transform="matrix(0.751897, 0, 0, 0.749197, 38.406618, 176.7831)" fill="none" stroke-linejoin="miter" d="M 35.997012 -0.00246985 L 155.502067 -0.00246985 C 175.384075 -0.00246985 191.499568 16.113753 191.499568 35.994425 L 191.499568 66.115234 C 191.499568 85.995906 175.384075 102.106915 155.502067 102.106915 L 35.997012 102.106915 C 16.115004 102.106915 -0.000489215 85.995906 -0.000489215 66.115234 L -0.000489215 35.994425 C -0.000489215 16.113753 16.115004 -0.00246985 35.997012 -0.00246985 " stroke="#ed5b2d" stroke-width="6" stroke-opacity="1" stroke-miterlimit="4"/></g></g><g fill="#f8dcbf" fill-opacity="1"><g transform="translate(89.130476, 205.283098)"><g><path d="M 6.492188 0.484375 C 9.761719 0.484375 12.023438 -1.796875 12.023438 -5.101562 L 12.023438 -13.625 L 10.398438 -13.625 L 10.398438 -5.101562 C 10.398438 -2.648438 8.871094 -0.945312 6.492188 -0.945312 C 4.097656 -0.945312 2.570312 -2.820312 2.570312 -5.101562 L 2.570312 -13.625 L 0.964844 -13.625 L 0.964844 -5.101562 C 0.964844 -1.796875 3.207031 0.484375 6.492188 0.484375 Z M 6.492188 0.484375 "/></g></g></g><g fill="#f8dcbf" fill-opacity="1"><g transform="translate(102.116372, 205.283098)"><g><path d="M 5.003906 0.386719 C 7.363281 0.386719 9.140625 -0.964844 9.140625 -2.800781 C 9.140625 -4.253906 8.15625 -5.0625 5.855469 -5.546875 L 4.269531 -5.855469 C 2.917969 -6.144531 2.339844 -6.550781 2.339844 -7.265625 C 2.359375 -8.097656 3.265625 -8.851562 4.503906 -8.851562 C 5.894531 -8.851562 6.917969 -8.097656 7.054688 -7.074219 L 8.464844 -7.460938 C 8.097656 -9.046875 6.570312 -10.148438 4.523438 -10.148438 C 2.433594 -10.148438 0.925781 -8.890625 0.910156 -7.191406 C 0.910156 -5.757812 1.777344 -4.949219 3.808594 -4.523438 L 5.355469 -4.214844 C 6.996094 -3.886719 7.710938 -3.421875 7.710938 -2.667969 C 7.710938 -1.664062 6.53125 -0.945312 5.003906 -0.945312 C 3.265625 -0.945312 1.953125 -1.894531 1.835938 -3.246094 L 0.386719 -2.957031 C 0.558594 -0.871094 2.570312 0.386719 5.003906 0.386719 Z M 5.003906 0.386719 "/></g></g></g><g fill="#f8dcbf" fill-opacity="1"><g transform="translate(111.643223, 205.283098)"><g><path d="M 5.972656 0.386719 C 8.15625 0.386719 9.992188 -0.714844 10.628906 -2.28125 L 9.355469 -2.800781 C 8.8125 -1.738281 7.519531 -0.945312 5.992188 -0.945312 C 3.886719 -0.945312 2.320312 -2.359375 2.105469 -4.386719 L 10.320312 -4.386719 C 10.339844 -4.582031 10.339844 -4.792969 10.339844 -4.96875 C 10.300781 -7.980469 8.425781 -10.148438 5.566406 -10.148438 C 2.667969 -10.148438 0.578125 -7.980469 0.578125 -4.988281 C 0.578125 -1.875 2.859375 0.386719 5.972656 0.386719 Z M 2.125 -5.683594 C 2.398438 -7.539062 3.730469 -8.792969 5.546875 -8.792969 C 7.324219 -8.792969 8.582031 -7.671875 8.773438 -5.683594 Z M 2.125 -5.683594 "/></g></g></g><g fill="#f8dcbf" fill-opacity="1"><g transform="translate(122.735339, 205.283098)"><g><path d="M 5.199219 -10.167969 C 3.960938 -10.167969 2.917969 -9.414062 2.378906 -8.234375 L 2.359375 -8.234375 L 2.222656 -9.761719 L 0.964844 -9.761719 L 0.964844 0 L 2.433594 0 L 2.433594 -5.371094 C 2.433594 -7.5 3.421875 -8.792969 4.988281 -8.792969 C 6.050781 -8.792969 6.765625 -8.058594 6.917969 -6.6875 L 8.195312 -7.113281 C 8 -9.066406 6.859375 -10.167969 5.199219 -10.167969 Z M 5.199219 -10.167969 "/></g></g></g><g fill="#f8dcbf" fill-opacity="1"><g transform="translate(58.591416, 232.283096)"><g><path d="M 8 0.484375 C 12.445312 0.484375 15.347656 -2.414062 15.347656 -6.804688 C 15.347656 -11.210938 12.445312 -14.109375 8 -14.109375 C 3.574219 -14.109375 0.675781 -11.210938 0.675781 -6.804688 C 0.675781 -2.414062 3.574219 0.484375 8 0.484375 Z M 8 -0.945312 C 4.542969 -0.945312 2.28125 -3.285156 2.28125 -6.804688 C 2.28125 -10.339844 4.542969 -12.679688 8 -12.679688 C 11.460938 -12.679688 13.722656 -10.339844 13.722656 -6.804688 C 13.722656 -3.285156 11.460938 -0.945312 8 -0.945312 Z M 8 -0.945312 "/></g></g></g><g fill="#f8dcbf" fill-opacity="1"><g transform="translate(74.611209, 232.283096)"><g><path d="M 0.964844 4.058594 L 2.433594 4.058594 L 2.433594 -1.625 L 2.453125 -1.625 C 3.304688 -0.367188 4.621094 0.386719 6.242188 0.386719 C 9.082031 0.386719 11.191406 -1.835938 11.191406 -4.871094 C 11.191406 -7.925781 9.082031 -10.148438 6.222656 -10.148438 C 4.582031 -10.148438 3.246094 -9.375 2.414062 -8.078125 L 2.398438 -8.078125 L 2.242188 -9.761719 L 0.964844 -9.761719 Z M 6.050781 -0.964844 C 3.941406 -0.964844 2.398438 -2.667969 2.398438 -4.871094 C 2.398438 -7.09375 3.941406 -8.792969 6.050781 -8.792969 C 8.15625 -8.792969 9.703125 -7.132812 9.703125 -4.871094 C 9.703125 -2.667969 8.175781 -0.964844 6.050781 -0.964844 Z M 6.050781 -0.964844 "/></g></g></g><g fill="#f8dcbf" fill-opacity="1"><g transform="translate(86.379671, 232.283096)"><g><path d="M 5.972656 0.386719 C 8.15625 0.386719 9.992188 -0.714844 10.628906 -2.28125 L 9.355469 -2.800781 C 8.8125 -1.738281 7.519531 -0.945312 5.992188 -0.945312 C 3.886719 -0.945312 2.320312 -2.359375 2.105469 -4.386719 L 10.320312 -4.386719 C 10.339844 -4.582031 10.339844 -4.792969 10.339844 -4.96875 C 10.300781 -7.980469 8.425781 -10.148438 5.566406 -10.148438 C 2.667969 -10.148438 0.578125 -7.980469 0.578125 -4.988281 C 0.578125 -1.875 2.859375 0.386719 5.972656 0.386719 Z M 2.125 -5.683594 C 2.398438 -7.539062 3.730469 -8.792969 5.546875 -8.792969 C 7.324219 -8.792969 8.582031 -7.671875 8.773438 -5.683594 Z M 2.125 -5.683594 "/></g></g></g><g fill="#f8dcbf" fill-opacity="1"><g transform="translate(97.471788, 232.283096)"><g><path d="M 5.199219 -10.167969 C 3.960938 -10.167969 2.917969 -9.414062 2.378906 -8.234375 L 2.359375 -8.234375 L 2.222656 -9.761719 L 0.964844 -9.761719 L 0.964844 0 L 2.433594 0 L 2.433594 -5.371094 C 2.433594 -7.5 3.421875 -8.792969 4.988281 -8.792969 C 6.050781 -8.792969 6.765625 -8.058594 6.917969 -6.6875 L 8.195312 -7.113281 C 8 -9.066406 6.859375 -10.167969 5.199219 -10.167969 Z M 5.199219 -10.167969 "/></g></g></g><g fill="#f8dcbf" fill-opacity="1"><g transform="translate(106.051755, 232.283096)"><g><path d="M 4.15625 0.386719 C 5.894531 0.386719 7.246094 -0.386719 7.945312 -1.625 L 7.964844 -1.625 L 7.980469 -1.179688 C 8.039062 -0.289062 8.640625 0.386719 9.585938 0.386719 C 10.339844 0.386719 11.152344 -0.0195312 11.558594 -0.617188 L 10.765625 -1.546875 C 10.554688 -1.199219 10.242188 -0.964844 9.972656 -0.964844 C 9.664062 -0.964844 9.449219 -1.238281 9.449219 -1.625 L 9.449219 -6.570312 C 9.449219 -8.753906 7.691406 -10.148438 5.199219 -10.148438 C 2.667969 -10.148438 0.773438 -8.640625 0.597656 -7.035156 L 1.933594 -6.476562 C 2.011719 -7.632812 3.304688 -8.8125 5.140625 -8.8125 C 6.84375 -8.8125 8 -8.019531 8 -6.804688 C 8 -6.378906 7.691406 -6.109375 7.210938 -6.050781 L 4.792969 -5.757812 C 1.625 -5.371094 0.386719 -4.117188 0.386719 -2.550781 C 0.386719 -0.8125 1.933594 0.386719 4.15625 0.386719 Z M 4.40625 -0.945312 C 2.917969 -0.945312 1.855469 -1.585938 1.855469 -2.570312 C 1.855469 -3.460938 2.589844 -4.214844 4.949219 -4.503906 L 7.964844 -4.871094 L 7.964844 -4.175781 C 7.964844 -2.28125 6.457031 -0.945312 4.40625 -0.945312 Z M 4.40625 -0.945312 "/></g></g></g><g fill="#f8dcbf" fill-opacity="1"><g transform="translate(117.607654, 232.283096)"><g><path d="M 5.21875 0.386719 C 6.878906 0.386719 8.367188 -0.65625 8.640625 -2.359375 L 7.441406 -2.859375 C 7.246094 -1.605469 6.339844 -0.890625 5.355469 -0.890625 C 4.289062 -0.890625 3.613281 -1.679688 3.613281 -2.78125 L 3.613281 -8.542969 L 7.980469 -8.542969 L 7.980469 -9.761719 L 3.613281 -9.761719 L 3.613281 -13.007812 L 2.144531 -12.660156 L 2.144531 -9.761719 L 0 -9.761719 L 0 -8.542969 L 2.144531 -8.542969 L 2.144531 -2.628906 C 2.144531 -0.851562 3.382812 0.386719 5.21875 0.386719 Z M 5.21875 0.386719 "/></g></g></g><g fill="#f8dcbf" fill-opacity="1"><g transform="translate(126.32289, 232.283096)"><g><path d="M 1.855469 -11.65625 C 2.492188 -11.65625 2.957031 -12.078125 2.957031 -12.738281 C 2.957031 -13.375 2.492188 -13.800781 1.855469 -13.800781 C 1.199219 -13.800781 0.773438 -13.375 0.773438 -12.738281 C 0.773438 -12.078125 1.199219 -11.65625 1.855469 -11.65625 Z M 1.101562 0 L 2.570312 0 L 2.570312 -9.761719 L 1.101562 -9.761719 Z M 1.101562 0 "/></g></g></g><g fill="#f8dcbf" fill-opacity="1"><g transform="translate(130.052474, 232.283096)"><g><path d="M 5.777344 0.386719 C 8.929688 0.386719 10.996094 -1.699219 10.996094 -4.871094 C 10.996094 -8.058594 8.929688 -10.148438 5.777344 -10.148438 C 2.648438 -10.148438 0.578125 -8.058594 0.578125 -4.871094 C 0.578125 -1.699219 2.648438 0.386719 5.777344 0.386719 Z M 5.777344 -0.945312 C 3.519531 -0.945312 2.046875 -2.492188 2.046875 -4.871094 C 2.046875 -7.246094 3.519531 -8.792969 5.777344 -8.792969 C 8.039062 -8.792969 9.507812 -7.246094 9.507812 -4.871094 C 9.507812 -2.492188 8.039062 -0.945312 5.777344 -0.945312 Z M 5.777344 -0.945312 "/></g></g></g><g fill="#f8dcbf" fill-opacity="1"><g transform="translate(141.627691, 232.283096)"><g><path d="M 6.203125 -10.148438 C 4.503906 -10.148438 3.285156 -9.488281 2.453125 -8.3125 L 2.433594 -8.3125 L 2.300781 -9.761719 L 0.964844 -9.761719 L 0.964844 0 L 2.433594 0 L 2.433594 -5.507812 C 2.433594 -7.5 3.847656 -8.871094 5.796875 -8.871094 C 7.34375 -8.871094 8.332031 -7.808594 8.332031 -6.144531 L 8.332031 0 L 9.820312 0 L 9.820312 -6.300781 C 9.820312 -8.714844 8.445312 -10.148438 6.203125 -10.148438 Z M 6.203125 -10.148438 "/></g></g></g><g fill="#f8dcbf" fill-opacity="1"><g transform="translate(152.314, 232.283096)"><g><path d="M 5.003906 0.386719 C 7.363281 0.386719 9.140625 -0.964844 9.140625 -2.800781 C 9.140625 -4.253906 8.15625 -5.0625 5.855469 -5.546875 L 4.269531 -5.855469 C 2.917969 -6.144531 2.339844 -6.550781 2.339844 -7.265625 C 2.359375 -8.097656 3.265625 -8.851562 4.503906 -8.851562 C 5.894531 -8.851562 6.917969 -8.097656 7.054688 -7.074219 L 8.464844 -7.460938 C 8.097656 -9.046875 6.570312 -10.148438 4.523438 -10.148438 C 2.433594 -10.148438 0.925781 -8.890625 0.910156 -7.191406 C 0.910156 -5.757812 1.777344 -4.949219 3.808594 -4.523438 L 5.355469 -4.214844 C 6.996094 -3.886719 7.710938 -3.421875 7.710938 -2.667969 C 7.710938 -1.664062 6.53125 -0.945312 5.003906 -0.945312 C 3.265625 -0.945312 1.953125 -1.894531 1.835938 -3.246094 L 0.386719 -2.957031 C 0.558594 -0.871094 2.570312 0.386719 5.003906 0.386719 Z M 5.003906 0.386719 "/></g></g></g><g clip-path="url(#9c29bb4ddb)"><g clip-path="url(#0d68270e3f)"><path stroke-linecap="butt" transform="matrix(0.751897, 0, 0, 0.749197, 386.763089, 176.7831)" fill="none" stroke-linejoin="miter" d="M 35.995678 -0.00246985 L 155.500733 -0.00246985 C 175.382742 -0.00246985 191.498235 16.113753 191.498235 35.994425 L 191.498235 66.115234 C 191.498235 85.995906 175.382742 102.106915 155.500733 102.106915 L 35.995678 102.106915 C 16.11367 102.106915 -0.0018229 85.995906 -0.0018229 66.115234 L -0.0018229 35.994425 C -0.0018229 16.113753 16.11367 -0.00246985 35.995678 -0.00246985 " stroke="#ed5b2d" stroke-width="6" stroke-opacity="1" stroke-miterlimit="4"/></g></g><g fill="#f8dcbf" fill-opacity="1"><g transform="translate(410.287745, 218.783097)"><g><path d="M 1.160156 0 L 10.667969 0 L 10.667969 -1.429688 L 2.726562 -1.429688 L 2.726562 -6.339844 L 9.703125 -6.339844 L 9.703125 -7.730469 L 2.726562 -7.730469 L 2.726562 -12.195312 L 10.476562 -12.195312 L 10.476562 -13.625 L 1.160156 -13.625 Z M 1.160156 0 "/></g></g></g><g fill="#f8dcbf" fill-opacity="1"><g transform="translate(421.437837, 218.783097)"><g><path d="M 6.203125 -10.148438 C 4.503906 -10.148438 3.285156 -9.488281 2.453125 -8.3125 L 2.433594 -8.3125 L 2.300781 -9.761719 L 0.964844 -9.761719 L 0.964844 0 L 2.433594 0 L 2.433594 -5.507812 C 2.433594 -7.5 3.847656 -8.871094 5.796875 -8.871094 C 7.34375 -8.871094 8.332031 -7.808594 8.332031 -6.144531 L 8.332031 0 L 9.820312 0 L 9.820312 -6.300781 C 9.820312 -8.714844 8.445312 -10.148438 6.203125 -10.148438 Z M 6.203125 -10.148438 "/></g></g></g><g fill="#f8dcbf" fill-opacity="1"><g transform="translate(432.124146, 218.783097)"><g><path d="M 5.21875 0.386719 C 6.878906 0.386719 8.367188 -0.65625 8.640625 -2.359375 L 7.441406 -2.859375 C 7.246094 -1.605469 6.339844 -0.890625 5.355469 -0.890625 C 4.289062 -0.890625 3.613281 -1.679688 3.613281 -2.78125 L 3.613281 -8.542969 L 7.980469 -8.542969 L 7.980469 -9.761719 L 3.613281 -9.761719 L 3.613281 -13.007812 L 2.144531 -12.660156 L 2.144531 -9.761719 L 0 -9.761719 L 0 -8.542969 L 2.144531 -8.542969 L 2.144531 -2.628906 C 2.144531 -0.851562 3.382812 0.386719 5.21875 0.386719 Z M 5.21875 0.386719 "/></g></g></g><g fill="#f8dcbf" fill-opacity="1"><g transform="translate(440.839382, 218.783097)"><g><path d="M 5.199219 -10.167969 C 3.960938 -10.167969 2.917969 -9.414062 2.378906 -8.234375 L 2.359375 -8.234375 L 2.222656 -9.761719 L 0.964844 -9.761719 L 0.964844 0 L 2.433594 0 L 2.433594 -5.371094 C 2.433594 -7.5 3.421875 -8.792969 4.988281 -8.792969 C 6.050781 -8.792969 6.765625 -8.058594 6.917969 -6.6875 L 8.195312 -7.113281 C 8 -9.066406 6.859375 -10.167969 5.199219 -10.167969 Z M 5.199219 -10.167969 "/></g></g></g><g fill="#f8dcbf" fill-opacity="1"><g transform="translate(449.419349, 218.783097)"><g><path d="M 4.714844 4.445312 C 7.769531 4.445312 9.703125 2.726562 9.703125 -0.191406 L 9.683594 -9.761719 L 8.214844 -9.761719 L 8.214844 -3.75 C 8.214844 -1.894531 6.746094 -0.558594 5.042969 -0.558594 C 3.34375 -0.558594 2.320312 -1.796875 2.320312 -3.535156 L 2.320312 -9.761719 L 0.851562 -9.761719 L 0.851562 -3.535156 C 0.851562 -1.042969 2.433594 0.773438 4.871094 0.773438 C 6.222656 0.773438 7.539062 0.0976562 8.214844 -1.042969 L 8.234375 -1.042969 L 8.234375 -0.191406 C 8.234375 1.875 6.878906 3.113281 4.675781 3.113281 C 2.9375 3.113281 1.625 2.28125 1.003906 1.042969 L -0.25 1.894531 C 0.503906 3.441406 2.300781 4.445312 4.714844 4.445312 Z M 4.714844 4.445312 "/></g></g></g><g fill="#f8dcbf" fill-opacity="1"><g transform="translate(460.086329, 218.783097)"><g><path d="M 1.160156 0 L 2.726562 0 L 2.726562 -5.371094 L 6.746094 -5.371094 C 9.644531 -5.371094 11.691406 -7.074219 11.691406 -9.488281 C 11.691406 -11.90625 9.664062 -13.625 6.746094 -13.625 L 1.160156 -13.625 Z M 2.726562 -6.824219 L 2.726562 -12.195312 L 6.746094 -12.195312 C 8.714844 -12.195312 10.089844 -11.074219 10.089844 -9.488281 C 10.089844 -7.925781 8.699219 -6.824219 6.746094 -6.824219 Z M 2.726562 -6.824219 "/></g></g></g><g fill="#f8dcbf" fill-opacity="1"><g transform="translate(472.163976, 218.783097)"><g><path d="M 5.777344 0.386719 C 8.929688 0.386719 10.996094 -1.699219 10.996094 -4.871094 C 10.996094 -8.058594 8.929688 -10.148438 5.777344 -10.148438 C 2.648438 -10.148438 0.578125 -8.058594 0.578125 -4.871094 C 0.578125 -1.699219 2.648438 0.386719 5.777344 0.386719 Z M 5.777344 -0.945312 C 3.519531 -0.945312 2.046875 -2.492188 2.046875 -4.871094 C 2.046875 -7.246094 3.519531 -8.792969 5.777344 -8.792969 C 8.039062 -8.792969 9.507812 -7.246094 9.507812 -4.871094 C 9.507812 -2.492188 8.039062 -0.945312 5.777344 -0.945312 Z M 5.777344 -0.945312 "/></g></g></g><g fill="#f8dcbf" fill-opacity="1"><g transform="translate(483.739193, 218.783097)"><g><path d="M 1.855469 -11.65625 C 2.492188 -11.65625 2.957031 -12.078125 2.957031 -12.738281 C 2.957031 -13.375 2.492188 -13.800781 1.855469 -13.800781 C 1.199219 -13.800781 0.773438 -13.375 0.773438 -12.738281 C 0.773438 -12.078125 1.199219 -11.65625 1.855469 -11.65625 Z M 1.101562 0 L 2.570312 0 L 2.570312 -9.761719 L 1.101562 -9.761719 Z M 1.101562 0 "/></g></g></g><g fill="#f8dcbf" fill-opacity="1"><g transform="translate(487.468777, 218.783097)"><g><path d="M 6.203125 -10.148438 C 4.503906 -10.148438 3.285156 -9.488281 2.453125 -8.3125 L 2.433594 -8.3125 L 2.300781 -9.761719 L 0.964844 -9.761719 L 0.964844 0 L 2.433594 0 L 2.433594 -5.507812 C 2.433594 -7.5 3.847656 -8.871094 5.796875 -8.871094 C 7.34375 -8.871094 8.332031 -7.808594 8.332031 -6.144531 L 8.332031 0 L 9.820312 0 L 9.820312 -6.300781 C 9.820312 -8.714844 8.445312 -10.148438 6.203125 -10.148438 Z M 6.203125 -10.148438 "/></g></g></g><g fill="#f8dcbf" fill-opacity="1"><g transform="translate(498.155086, 218.783097)"><g><path d="M 5.21875 0.386719 C 6.878906 0.386719 8.367188 -0.65625 8.640625 -2.359375 L 7.441406 -2.859375 C 7.246094 -1.605469 6.339844 -0.890625 5.355469 -0.890625 C 4.289062 -0.890625 3.613281 -1.679688 3.613281 -2.78125 L 3.613281 -8.542969 L 7.980469 -8.542969 L 7.980469 -9.761719 L 3.613281 -9.761719 L 3.613281 -13.007812 L 2.144531 -12.660156 L 2.144531 -9.761719 L 0 -9.761719 L 0 -8.542969 L 2.144531 -8.542969 L 2.144531 -2.628906 C 2.144531 -0.851562 3.382812 0.386719 5.21875 0.386719 Z M 5.21875 0.386719 "/></g></g></g><g clip-path="url(#3e44358ac6)"><g clip-path="url(#e0fe8d2ed3)"><path stroke-linecap="butt" transform="matrix(0.751897, 0, 0, 0.749197, 585.965368, 81.253126)" fill="none" stroke-linejoin="miter" d="M 35.996804 0.00104096 L 155.501859 0.00104096 C 175.383867 0.00104096 191.49936 16.117264 191.49936 35.997936 L 191.49936 66.11353 C 191.49936 85.994203 175.383867 102.110425 155.501859 102.110425 L 35.996804 102.110425 C 16.114795 102.110425 -0.000697251 85.994203 -0.000697251 66.11353 L -0.000697251 35.997936 C -0.000697251 16.117264 16.114795 0.00104096 35.996804 0.00104096 " stroke="#ed5b2d" stroke-width="6" stroke-opacity="1" stroke-miterlimit="4"/></g></g><g fill="#f8dcbf" fill-opacity="1"><g transform="translate(614.84546, 109.753124)"><g><path d="M 7.90625 0.484375 C 11.460938 0.484375 14.050781 -1.664062 14.574219 -5.023438 L 13.027344 -5.410156 C 12.621094 -2.6875 10.628906 -0.945312 7.90625 -0.945312 C 4.484375 -0.945312 2.300781 -3.226562 2.28125 -6.804688 C 2.28125 -10.398438 4.289062 -12.679688 7.480469 -12.679688 C 9.722656 -12.679688 11.421875 -11.25 11.828125 -8.96875 L 13.355469 -9.335938 C 12.738281 -12.253906 10.4375 -14.109375 7.480469 -14.109375 C 3.304688 -14.109375 0.675781 -11.269531 0.675781 -6.804688 C 0.675781 -2.359375 3.480469 0.484375 7.90625 0.484375 Z M 7.90625 0.484375 "/></g></g></g><g fill="#f8dcbf" fill-opacity="1"><g transform="translate(629.802418, 109.753124)"><g><path d="M 5.777344 0.386719 C 8.929688 0.386719 10.996094 -1.699219 10.996094 -4.871094 C 10.996094 -8.058594 8.929688 -10.148438 5.777344 -10.148438 C 2.648438 -10.148438 0.578125 -8.058594 0.578125 -4.871094 C 0.578125 -1.699219 2.648438 0.386719 5.777344 0.386719 Z M 5.777344 -0.945312 C 3.519531 -0.945312 2.046875 -2.492188 2.046875 -4.871094 C 2.046875 -7.246094 3.519531 -8.792969 5.777344 -8.792969 C 8.039062 -8.792969 9.507812 -7.246094 9.507812 -4.871094 C 9.507812 -2.492188 8.039062 -0.945312 5.777344 -0.945312 Z M 5.777344 -0.945312 "/></g></g></g><g fill="#f8dcbf" fill-opacity="1"><g transform="translate(641.377636, 109.753124)"><g><path d="M 6.203125 -10.148438 C 4.503906 -10.148438 3.285156 -9.488281 2.453125 -8.3125 L 2.433594 -8.3125 L 2.300781 -9.761719 L 0.964844 -9.761719 L 0.964844 0 L 2.433594 0 L 2.433594 -5.507812 C 2.433594 -7.5 3.847656 -8.871094 5.796875 -8.871094 C 7.34375 -8.871094 8.332031 -7.808594 8.332031 -6.144531 L 8.332031 0 L 9.820312 0 L 9.820312 -6.300781 C 9.820312 -8.714844 8.445312 -10.148438 6.203125 -10.148438 Z M 6.203125 -10.148438 "/></g></g></g><g fill="#f8dcbf" fill-opacity="1"><g transform="translate(652.063945, 109.753124)"><g><path d="M 5.21875 0.386719 C 6.878906 0.386719 8.367188 -0.65625 8.640625 -2.359375 L 7.441406 -2.859375 C 7.246094 -1.605469 6.339844 -0.890625 5.355469 -0.890625 C 4.289062 -0.890625 3.613281 -1.679688 3.613281 -2.78125 L 3.613281 -8.542969 L 7.980469 -8.542969 L 7.980469 -9.761719 L 3.613281 -9.761719 L 3.613281 -13.007812 L 2.144531 -12.660156 L 2.144531 -9.761719 L 0 -9.761719 L 0 -8.542969 L 2.144531 -8.542969 L 2.144531 -2.628906 C 2.144531 -0.851562 3.382812 0.386719 5.21875 0.386719 Z M 5.21875 0.386719 "/></g></g></g><g fill="#f8dcbf" fill-opacity="1"><g transform="translate(660.779181, 109.753124)"><g><path d="M 5.199219 -10.167969 C 3.960938 -10.167969 2.917969 -9.414062 2.378906 -8.234375 L 2.359375 -8.234375 L 2.222656 -9.761719 L 0.964844 -9.761719 L 0.964844 0 L 2.433594 0 L 2.433594 -5.371094 C 2.433594 -7.5 3.421875 -8.792969 4.988281 -8.792969 C 6.050781 -8.792969 6.765625 -8.058594 6.917969 -6.6875 L 8.195312 -7.113281 C 8 -9.066406 6.859375 -10.167969 5.199219 -10.167969 Z M 5.199219 -10.167969 "/></g></g></g><g fill="#f8dcbf" fill-opacity="1"><g transform="translate(669.359147, 109.753124)"><g><path d="M 4.15625 0.386719 C 5.894531 0.386719 7.246094 -0.386719 7.945312 -1.625 L 7.964844 -1.625 L 7.980469 -1.179688 C 8.039062 -0.289062 8.640625 0.386719 9.585938 0.386719 C 10.339844 0.386719 11.152344 -0.0195312 11.558594 -0.617188 L 10.765625 -1.546875 C 10.554688 -1.199219 10.242188 -0.964844 9.972656 -0.964844 C 9.664062 -0.964844 9.449219 -1.238281 9.449219 -1.625 L 9.449219 -6.570312 C 9.449219 -8.753906 7.691406 -10.148438 5.199219 -10.148438 C 2.667969 -10.148438 0.773438 -8.640625 0.597656 -7.035156 L 1.933594 -6.476562 C 2.011719 -7.632812 3.304688 -8.8125 5.140625 -8.8125 C 6.84375 -8.8125 8 -8.019531 8 -6.804688 C 8 -6.378906 7.691406 -6.109375 7.210938 -6.050781 L 4.792969 -5.757812 C 1.625 -5.371094 0.386719 -4.117188 0.386719 -2.550781 C 0.386719 -0.8125 1.933594 0.386719 4.15625 0.386719 Z M 4.40625 -0.945312 C 2.917969 -0.945312 1.855469 -1.585938 1.855469 -2.570312 C 1.855469 -3.460938 2.589844 -4.214844 4.949219 -4.503906 L 7.964844 -4.871094 L 7.964844 -4.175781 C 7.964844 -2.28125 6.457031 -0.945312 4.40625 -0.945312 Z M 4.40625 -0.945312 "/></g></g></g><g fill="#f8dcbf" fill-opacity="1"><g transform="translate(680.915047, 109.753124)"><g><path d="M 5.742188 0.386719 C 8.253906 0.386719 10.320312 -1.238281 10.6875 -3.480469 L 9.257812 -3.769531 C 8.988281 -2.085938 7.519531 -0.945312 5.742188 -0.945312 C 3.613281 -0.945312 2.046875 -2.53125 2.046875 -4.871094 C 2.046875 -7.210938 3.5 -8.792969 5.449219 -8.792969 C 6.878906 -8.792969 8.117188 -7.886719 8.503906 -6.476562 L 9.933594 -6.804688 C 9.449219 -8.773438 7.652344 -10.148438 5.449219 -10.148438 C 2.589844 -10.148438 0.578125 -7.964844 0.578125 -4.871094 C 0.578125 -1.796875 2.707031 0.386719 5.742188 0.386719 Z M 5.742188 0.386719 "/></g></g></g><g fill="#f8dcbf" fill-opacity="1"><g transform="translate(691.987834, 109.753124)"><g><path d="M 5.21875 0.386719 C 6.878906 0.386719 8.367188 -0.65625 8.640625 -2.359375 L 7.441406 -2.859375 C 7.246094 -1.605469 6.339844 -0.890625 5.355469 -0.890625 C 4.289062 -0.890625 3.613281 -1.679688 3.613281 -2.78125 L 3.613281 -8.542969 L 7.980469 -8.542969 L 7.980469 -9.761719 L 3.613281 -9.761719 L 3.613281 -13.007812 L 2.144531 -12.660156 L 2.144531 -9.761719 L 0 -9.761719 L 0 -8.542969 L 2.144531 -8.542969 L 2.144531 -2.628906 C 2.144531 -0.851562 3.382812 0.386719 5.21875 0.386719 Z M 5.21875 0.386719 "/></g></g></g><g fill="#f8dcbf" fill-opacity="1"><g transform="translate(619.43921, 136.753122)"><g><path d="M 0.191406 0 L 1.914062 0 L 3.167969 -3.265625 L 9.742188 -3.265625 L 10.976562 0 L 12.679688 0 L 7.421875 -13.625 L 5.488281 -13.625 Z M 3.632812 -4.695312 L 6.4375 -12.042969 L 6.476562 -12.042969 L 9.257812 -4.695312 Z M 3.632812 -4.695312 "/></g></g></g><g fill="#f8dcbf" fill-opacity="1"><g transform="translate(632.309154, 136.753122)"><g><path d="M 5.742188 0.386719 C 8.253906 0.386719 10.320312 -1.238281 10.6875 -3.480469 L 9.257812 -3.769531 C 8.988281 -2.085938 7.519531 -0.945312 5.742188 -0.945312 C 3.613281 -0.945312 2.046875 -2.53125 2.046875 -4.871094 C 2.046875 -7.210938 3.5 -8.792969 5.449219 -8.792969 C 6.878906 -8.792969 8.117188 -7.886719 8.503906 -6.476562 L 9.933594 -6.804688 C 9.449219 -8.773438 7.652344 -10.148438 5.449219 -10.148438 C 2.589844 -10.148438 0.578125 -7.964844 0.578125 -4.871094 C 0.578125 -1.796875 2.707031 0.386719 5.742188 0.386719 Z M 5.742188 0.386719 "/></g></g></g><g fill="#f8dcbf" fill-opacity="1"><g transform="translate(643.381942, 136.753122)"><g><path d="M 5.742188 0.386719 C 8.253906 0.386719 10.320312 -1.238281 10.6875 -3.480469 L 9.257812 -3.769531 C 8.988281 -2.085938 7.519531 -0.945312 5.742188 -0.945312 C 3.613281 -0.945312 2.046875 -2.53125 2.046875 -4.871094 C 2.046875 -7.210938 3.5 -8.792969 5.449219 -8.792969 C 6.878906 -8.792969 8.117188 -7.886719 8.503906 -6.476562 L 9.933594 -6.804688 C 9.449219 -8.773438 7.652344 -10.148438 5.449219 -10.148438 C 2.589844 -10.148438 0.578125 -7.964844 0.578125 -4.871094 C 0.578125 -1.796875 2.707031 0.386719 5.742188 0.386719 Z M 5.742188 0.386719 "/></g></g></g><g fill="#f8dcbf" fill-opacity="1"><g transform="translate(654.454729, 136.753122)"><g><path d="M 5.777344 0.386719 C 8.929688 0.386719 10.996094 -1.699219 10.996094 -4.871094 C 10.996094 -8.058594 8.929688 -10.148438 5.777344 -10.148438 C 2.648438 -10.148438 0.578125 -8.058594 0.578125 -4.871094 C 0.578125 -1.699219 2.648438 0.386719 5.777344 0.386719 Z M 5.777344 -0.945312 C 3.519531 -0.945312 2.046875 -2.492188 2.046875 -4.871094 C 2.046875 -7.246094 3.519531 -8.792969 5.777344 -8.792969 C 8.039062 -8.792969 9.507812 -7.246094 9.507812 -4.871094 C 9.507812 -2.492188 8.039062 -0.945312 5.777344 -0.945312 Z M 5.777344 -0.945312 "/></g></g></g><g fill="#f8dcbf" fill-opacity="1"><g transform="translate(666.029946, 136.753122)"><g><path d="M 4.484375 0.386719 C 6.183594 0.386719 7.402344 -0.269531 8.234375 -1.449219 L 8.253906 -1.449219 L 8.386719 0 L 9.722656 0 L 9.722656 -9.761719 L 8.253906 -9.761719 L 8.253906 -4.253906 C 8.253906 -2.261719 6.84375 -0.890625 4.890625 -0.890625 C 3.34375 -0.890625 2.359375 -1.953125 2.359375 -3.613281 L 2.359375 -9.761719 L 0.871094 -9.761719 L 0.871094 -3.460938 C 0.871094 -1.042969 2.242188 0.386719 4.484375 0.386719 Z M 4.484375 0.386719 "/></g></g></g><g fill="#f8dcbf" fill-opacity="1"><g transform="translate(676.716255, 136.753122)"><g><path d="M 6.203125 -10.148438 C 4.503906 -10.148438 3.285156 -9.488281 2.453125 -8.3125 L 2.433594 -8.3125 L 2.300781 -9.761719 L 0.964844 -9.761719 L 0.964844 0 L 2.433594 0 L 2.433594 -5.507812 C 2.433594 -7.5 3.847656 -8.871094 5.796875 -8.871094 C 7.34375 -8.871094 8.332031 -7.808594 8.332031 -6.144531 L 8.332031 0 L 9.820312 0 L 9.820312 -6.300781 C 9.820312 -8.714844 8.445312 -10.148438 6.203125 -10.148438 Z M 6.203125 -10.148438 "/></g></g></g><g fill="#f8dcbf" fill-opacity="1"><g transform="translate(687.402564, 136.753122)"><g><path d="M 5.21875 0.386719 C 6.878906 0.386719 8.367188 -0.65625 8.640625 -2.359375 L 7.441406 -2.859375 C 7.246094 -1.605469 6.339844 -0.890625 5.355469 -0.890625 C 4.289062 -0.890625 3.613281 -1.679688 3.613281 -2.78125 L 3.613281 -8.542969 L 7.980469 -8.542969 L 7.980469 -9.761719 L 3.613281 -9.761719 L 3.613281 -13.007812 L 2.144531 -12.660156 L 2.144531 -9.761719 L 0 -9.761719 L 0 -8.542969 L 2.144531 -8.542969 L 2.144531 -2.628906 C 2.144531 -0.851562 3.382812 0.386719 5.21875 0.386719 Z M 5.21875 0.386719 "/></g></g></g><g clip-path="url(#adb4547dc1)"><g clip-path="url(#a7b499d8ca)"><path fill="#ed5b2d" d="M 613.03125 266.761719 L 619.796875 266.761719 L 619.796875 271.257812 L 613.03125 271.257812 Z M 622.054688 266.761719 L 628.820312 266.761719 L 628.820312 271.257812 L 622.054688 271.257812 Z M 631.074219 266.761719 L 637.84375 266.761719 L 637.84375 271.257812 L 631.074219 271.257812 Z M 640.097656 266.761719 L 646.867188 266.761719 L 646.867188 271.257812 L 640.097656 271.257812 Z M 649.121094 266.761719 L 655.886719 266.761719 L 655.886719 271.257812 L 649.121094 271.257812 Z M 658.144531 266.761719 L 664.910156 266.761719 L 664.910156 271.257812 L 658.144531 271.257812 Z M 667.167969 266.761719 L 673.933594 266.761719 L 673.933594 271.257812 L 667.167969 271.257812 Z M 676.191406 266.761719 L 682.957031 266.761719 L 682.957031 271.257812 L 676.191406 271.257812 Z M 685.210938 266.761719 L 691.980469 266.761719 L 691.980469 271.257812 L 685.210938 271.257812 Z M 694.234375 266.761719 L 701.003906 266.761719 L 701.003906 271.257812 L 694.234375 271.257812 Z M 703.296875 266.765625 C 705.769531 266.796875 708.1875 267.132812 710.558594 267.769531 L 709.378906 272.109375 C 707.375 271.570312 705.328125 271.285156 703.234375 271.257812 Z M 712.890625 268.503906 C 715.195312 269.339844 717.363281 270.449219 719.398438 271.828125 L 716.855469 275.542969 C 715.132812 274.375 713.300781 273.4375 711.351562 272.730469 Z M 721.359375 273.289062 C 723.269531 274.832031 724.957031 276.585938 726.421875 278.550781 L 722.804688 281.234375 C 721.5625 279.570312 720.132812 278.085938 718.515625 276.777344 Z M 727.800781 280.5625 C 729.097656 282.644531 730.117188 284.851562 730.855469 287.183594 L 726.554688 288.535156 C 725.929688 286.5625 725.066406 284.695312 723.96875 282.9375 Z M 731.496094 289.546875 C 731.96875 291.65625 732.207031 293.796875 732.207031 295.976562 L 732.207031 296.75 L 727.695312 296.75 L 727.695312 295.976562 C 727.695312 294.128906 727.496094 292.316406 727.09375 290.535156 Z M 732.207031 299 L 732.207031 305.742188 L 727.695312 305.742188 L 727.695312 299 Z M 732.207031 307.988281 L 732.207031 314.730469 L 727.695312 314.730469 L 727.695312 307.988281 Z M 732.207031 316.980469 L 732.207031 318.539062 C 732.207031 320.429688 732.027344 322.292969 731.671875 324.132812 L 727.242188 323.277344 C 727.546875 321.71875 727.695312 320.140625 727.695312 318.539062 L 727.695312 316.980469 Z M 731.101562 326.515625 C 730.433594 328.871094 729.476562 331.105469 728.238281 333.226562 L 724.339844 330.964844 C 725.390625 329.171875 726.195312 327.28125 726.761719 325.289062 Z M 726.925781 335.273438 C 725.515625 337.28125 723.878906 339.082031 722.015625 340.683594 L 719.070312 337.277344 C 720.648438 335.921875 722.035156 334.394531 723.226562 332.699219 Z M 720.097656 342.195312 C 718.105469 343.636719 715.96875 344.808594 713.683594 345.710938 L 712.023438 341.53125 C 713.953125 340.769531 715.761719 339.777344 717.449219 338.558594 Z M 711.382812 346.511719 C 709.035156 347.21875 706.628906 347.625 704.164062 347.730469 L 703.96875 343.238281 C 706.058594 343.148438 708.09375 342.804688 710.078125 342.207031 Z M 701.792969 347.757812 L 695.023438 347.757812 L 695.023438 343.261719 L 701.792969 343.261719 Z M 692.769531 347.757812 L 686 347.757812 L 686 343.261719 L 692.769531 343.261719 Z M 683.746094 347.757812 L 676.980469 347.757812 L 676.980469 343.261719 L 683.746094 343.261719 Z M 674.722656 347.757812 L 667.957031 347.757812 L 667.957031 343.261719 L 674.722656 343.261719 Z M 665.699219 347.757812 L 658.933594 347.757812 L 658.933594 343.261719 L 665.699219 343.261719 Z M 656.675781 347.757812 L 649.910156 347.757812 L 649.910156 343.261719 L 656.675781 343.261719 Z M 647.65625 347.757812 L 640.886719 347.757812 L 640.886719 343.261719 L 647.65625 343.261719 Z M 638.632812 347.757812 L 631.863281 347.757812 L 631.863281 343.261719 L 638.632812 343.261719 Z M 629.609375 347.757812 L 622.84375 347.757812 L 622.84375 343.261719 L 629.609375 343.261719 Z M 620.585938 347.757812 L 613.820312 347.757812 L 613.820312 343.261719 L 620.585938 343.261719 Z M 611.417969 347.710938 C 608.957031 347.578125 606.554688 347.144531 604.21875 346.414062 L 605.570312 342.125 C 607.550781 342.746094 609.578125 343.113281 611.664062 343.222656 Z M 601.925781 345.585938 C 599.652344 344.660156 597.527344 343.464844 595.550781 342 L 598.242188 338.390625 C 599.914062 339.632812 601.714844 340.644531 603.636719 341.429688 Z M 593.652344 340.464844 C 591.804688 338.84375 590.191406 337.023438 588.804688 335 L 592.527344 332.464844 C 593.703125 334.179688 595.070312 335.71875 596.632812 337.09375 Z M 587.511719 332.9375 C 586.296875 330.804688 585.367188 328.558594 584.726562 326.195312 L 589.082031 325.019531 C 589.625 327.015625 590.410156 328.917969 591.4375 330.722656 Z M 584.1875 323.8125 C 583.867188 322.074219 583.710938 320.320312 583.710938 318.539062 L 583.710938 316.675781 L 588.222656 316.675781 L 588.222656 318.539062 C 588.222656 320.046875 588.355469 321.535156 588.625 323.003906 Z M 583.710938 314.425781 L 583.710938 307.683594 L 588.222656 307.683594 L 588.222656 314.425781 Z M 583.710938 305.4375 L 583.710938 298.691406 L 588.222656 298.691406 L 588.222656 305.4375 Z M 583.710938 296.445312 L 583.710938 295.976562 C 583.710938 293.683594 583.972656 291.433594 584.496094 289.222656 L 588.886719 290.257812 C 588.441406 292.128906 588.222656 294.035156 588.222656 295.976562 L 588.222656 296.445312 Z M 585.164062 286.867188 C 585.929688 284.542969 586.972656 282.347656 588.296875 280.28125 L 592.097656 282.699219 C 590.980469 284.449219 590.097656 286.304688 589.449219 288.269531 Z M 589.695312 278.285156 C 591.183594 276.335938 592.890625 274.601562 594.816406 273.078125 L 597.621094 276.601562 C 595.992188 277.890625 594.542969 279.359375 593.285156 281.007812 Z M 596.796875 271.644531 C 598.84375 270.285156 601.023438 269.203125 603.339844 268.394531 L 604.832031 272.636719 C 602.875 273.320312 601.027344 274.234375 599.296875 275.386719 Z M 605.683594 267.6875 C 608.058594 267.074219 610.484375 266.765625 612.960938 266.761719 L 612.96875 271.257812 C 610.875 271.261719 608.820312 271.523438 606.8125 272.039062 Z M 605.683594 267.6875 " fill-opacity="1" fill-rule="nonzero"/></g></g><g fill="#f8dcbf" fill-opacity="1"><g transform="translate(602.693118, 311.00854)"><g><path d="M 1.160156 0 L 2.726562 0 L 2.726562 -5.371094 L 6.746094 -5.371094 C 9.644531 -5.371094 11.691406 -7.074219 11.691406 -9.488281 C 11.691406 -11.90625 9.664062 -13.625 6.746094 -13.625 L 1.160156 -13.625 Z M 2.726562 -6.824219 L 2.726562 -12.195312 L 6.746094 -12.195312 C 8.714844 -12.195312 10.089844 -11.074219 10.089844 -9.488281 C 10.089844 -7.925781 8.699219 -6.824219 6.746094 -6.824219 Z M 2.726562 -6.824219 "/></g></g></g><g fill="#f8dcbf" fill-opacity="1"><g transform="translate(614.770765, 311.00854)"><g><path d="M 4.15625 0.386719 C 5.894531 0.386719 7.246094 -0.386719 7.945312 -1.625 L 7.964844 -1.625 L 7.980469 -1.179688 C 8.039062 -0.289062 8.640625 0.386719 9.585938 0.386719 C 10.339844 0.386719 11.152344 -0.0195312 11.558594 -0.617188 L 10.765625 -1.546875 C 10.554688 -1.199219 10.242188 -0.964844 9.972656 -0.964844 C 9.664062 -0.964844 9.449219 -1.238281 9.449219 -1.625 L 9.449219 -6.570312 C 9.449219 -8.753906 7.691406 -10.148438 5.199219 -10.148438 C 2.667969 -10.148438 0.773438 -8.640625 0.597656 -7.035156 L 1.933594 -6.476562 C 2.011719 -7.632812 3.304688 -8.8125 5.140625 -8.8125 C 6.84375 -8.8125 8 -8.019531 8 -6.804688 C 8 -6.378906 7.691406 -6.109375 7.210938 -6.050781 L 4.792969 -5.757812 C 1.625 -5.371094 0.386719 -4.117188 0.386719 -2.550781 C 0.386719 -0.8125 1.933594 0.386719 4.15625 0.386719 Z M 4.40625 -0.945312 C 2.917969 -0.945312 1.855469 -1.585938 1.855469 -2.570312 C 1.855469 -3.460938 2.589844 -4.214844 4.949219 -4.503906 L 7.964844 -4.871094 L 7.964844 -4.175781 C 7.964844 -2.28125 6.457031 -0.945312 4.40625 -0.945312 Z M 4.40625 -0.945312 "/></g></g></g><g fill="#f8dcbf" fill-opacity="1"><g transform="translate(626.326665, 311.00854)"><g><path d="M 4.714844 4.445312 C 7.769531 4.445312 9.703125 2.726562 9.703125 -0.191406 L 9.683594 -9.761719 L 8.214844 -9.761719 L 8.214844 -3.75 C 8.214844 -1.894531 6.746094 -0.558594 5.042969 -0.558594 C 3.34375 -0.558594 2.320312 -1.796875 2.320312 -3.535156 L 2.320312 -9.761719 L 0.851562 -9.761719 L 0.851562 -3.535156 C 0.851562 -1.042969 2.433594 0.773438 4.871094 0.773438 C 6.222656 0.773438 7.539062 0.0976562 8.214844 -1.042969 L 8.234375 -1.042969 L 8.234375 -0.191406 C 8.234375 1.875 6.878906 3.113281 4.675781 3.113281 C 2.9375 3.113281 1.625 2.28125 1.003906 1.042969 L -0.25 1.894531 C 0.503906 3.441406 2.300781 4.445312 4.714844 4.445312 Z M 4.714844 4.445312 "/></g></g></g><g fill="#f8dcbf" fill-opacity="1"><g transform="translate(636.993644, 311.00854)"><g><path d="M 0.964844 0 L 2.433594 0 L 2.433594 -5.429688 C 2.433594 -7.402344 3.535156 -8.792969 5.390625 -8.792969 C 6.878906 -8.792969 7.75 -7.90625 7.75 -6.398438 L 7.75 0 L 9.21875 0 L 9.21875 -5.429688 C 9.21875 -7.402344 10.320312 -8.792969 12.175781 -8.792969 C 13.644531 -8.792969 14.515625 -7.90625 14.515625 -6.398438 L 14.515625 0 L 16.003906 0 L 16.003906 -6.492188 C 16.003906 -8.792969 14.746094 -10.148438 12.621094 -10.148438 C 11.171875 -10.148438 9.820312 -9.546875 8.949219 -8.175781 L 8.929688 -8.175781 C 8.425781 -9.433594 7.382812 -10.148438 5.835938 -10.148438 C 4.269531 -10.148438 2.996094 -9.46875 2.414062 -8.332031 L 2.398438 -8.332031 L 2.242188 -9.761719 L 0.964844 -9.761719 Z M 0.964844 0 "/></g></g></g><g fill="#f8dcbf" fill-opacity="1"><g transform="translate(653.86371, 311.00854)"><g><path d="M 4.15625 0.386719 C 5.894531 0.386719 7.246094 -0.386719 7.945312 -1.625 L 7.964844 -1.625 L 7.980469 -1.179688 C 8.039062 -0.289062 8.640625 0.386719 9.585938 0.386719 C 10.339844 0.386719 11.152344 -0.0195312 11.558594 -0.617188 L 10.765625 -1.546875 C 10.554688 -1.199219 10.242188 -0.964844 9.972656 -0.964844 C 9.664062 -0.964844 9.449219 -1.238281 9.449219 -1.625 L 9.449219 -6.570312 C 9.449219 -8.753906 7.691406 -10.148438 5.199219 -10.148438 C 2.667969 -10.148438 0.773438 -8.640625 0.597656 -7.035156 L 1.933594 -6.476562 C 2.011719 -7.632812 3.304688 -8.8125 5.140625 -8.8125 C 6.84375 -8.8125 8 -8.019531 8 -6.804688 C 8 -6.378906 7.691406 -6.109375 7.210938 -6.050781 L 4.792969 -5.757812 C 1.625 -5.371094 0.386719 -4.117188 0.386719 -2.550781 C 0.386719 -0.8125 1.933594 0.386719 4.15625 0.386719 Z M 4.40625 -0.945312 C 2.917969 -0.945312 1.855469 -1.585938 1.855469 -2.570312 C 1.855469 -3.460938 2.589844 -4.214844 4.949219 -4.503906 L 7.964844 -4.871094 L 7.964844 -4.175781 C 7.964844 -2.28125 6.457031 -0.945312 4.40625 -0.945312 Z M 4.40625 -0.945312 "/></g></g></g><g fill="#f8dcbf" fill-opacity="1"><g transform="translate(665.41961, 311.00854)"><g><path d="M 5.003906 0.386719 C 7.363281 0.386719 9.140625 -0.964844 9.140625 -2.800781 C 9.140625 -4.253906 8.15625 -5.0625 5.855469 -5.546875 L 4.269531 -5.855469 C 2.917969 -6.144531 2.339844 -6.550781 2.339844 -7.265625 C 2.359375 -8.097656 3.265625 -8.851562 4.503906 -8.851562 C 5.894531 -8.851562 6.917969 -8.097656 7.054688 -7.074219 L 8.464844 -7.460938 C 8.097656 -9.046875 6.570312 -10.148438 4.523438 -10.148438 C 2.433594 -10.148438 0.925781 -8.890625 0.910156 -7.191406 C 0.910156 -5.757812 1.777344 -4.949219 3.808594 -4.523438 L 5.355469 -4.214844 C 6.996094 -3.886719 7.710938 -3.421875 7.710938 -2.667969 C 7.710938 -1.664062 6.53125 -0.945312 5.003906 -0.945312 C 3.265625 -0.945312 1.953125 -1.894531 1.835938 -3.246094 L 0.386719 -2.957031 C 0.558594 -0.871094 2.570312 0.386719 5.003906 0.386719 Z M 5.003906 0.386719 "/></g></g></g><g fill="#f8dcbf" fill-opacity="1"><g transform="translate(674.946461, 311.00854)"><g><path d="M 5.21875 0.386719 C 6.878906 0.386719 8.367188 -0.65625 8.640625 -2.359375 L 7.441406 -2.859375 C 7.246094 -1.605469 6.339844 -0.890625 5.355469 -0.890625 C 4.289062 -0.890625 3.613281 -1.679688 3.613281 -2.78125 L 3.613281 -8.542969 L 7.980469 -8.542969 L 7.980469 -9.761719 L 3.613281 -9.761719 L 3.613281 -13.007812 L 2.144531 -12.660156 L 2.144531 -9.761719 L 0 -9.761719 L 0 -8.542969 L 2.144531 -8.542969 L 2.144531 -2.628906 C 2.144531 -0.851562 3.382812 0.386719 5.21875 0.386719 Z M 5.21875 0.386719 "/></g></g></g><g fill="#f8dcbf" fill-opacity="1"><g transform="translate(683.661697, 311.00854)"><g><path d="M 5.972656 0.386719 C 8.15625 0.386719 9.992188 -0.714844 10.628906 -2.28125 L 9.355469 -2.800781 C 8.8125 -1.738281 7.519531 -0.945312 5.992188 -0.945312 C 3.886719 -0.945312 2.320312 -2.359375 2.105469 -4.386719 L 10.320312 -4.386719 C 10.339844 -4.582031 10.339844 -4.792969 10.339844 -4.96875 C 10.300781 -7.980469 8.425781 -10.148438 5.566406 -10.148438 C 2.667969 -10.148438 0.578125 -7.980469 0.578125 -4.988281 C 0.578125 -1.875 2.859375 0.386719 5.972656 0.386719 Z M 2.125 -5.683594 C 2.398438 -7.539062 3.730469 -8.792969 5.546875 -8.792969 C 7.324219 -8.792969 8.582031 -7.671875 8.773438 -5.683594 Z M 2.125 -5.683594 "/></g></g></g><g fill="#f8dcbf" fill-opacity="1"><g transform="translate(694.753813, 311.00854)"><g><path d="M 5.199219 -10.167969 C 3.960938 -10.167969 2.917969 -9.414062 2.378906 -8.234375 L 2.359375 -8.234375 L 2.222656 -9.761719 L 0.964844 -9.761719 L 0.964844 0 L 2.433594 0 L 2.433594 -5.371094 C 2.433594 -7.5 3.421875 -8.792969 4.988281 -8.792969 C 6.050781 -8.792969 6.765625 -8.058594 6.917969 -6.6875 L 8.195312 -7.113281 C 8 -9.066406 6.859375 -10.167969 5.199219 -10.167969 Z M 5.199219 -10.167969 "/></g></g></g><g fill="#f8dcbf" fill-opacity="1"><g transform="translate(703.33378, 311.00854)"><g><path d="M 5.003906 0.386719 C 7.363281 0.386719 9.140625 -0.964844 9.140625 -2.800781 C 9.140625 -4.253906 8.15625 -5.0625 5.855469 -5.546875 L 4.269531 -5.855469 C 2.917969 -6.144531 2.339844 -6.550781 2.339844 -7.265625 C 2.359375 -8.097656 3.265625 -8.851562 4.503906 -8.851562 C 5.894531 -8.851562 6.917969 -8.097656 7.054688 -7.074219 L 8.464844 -7.460938 C 8.097656 -9.046875 6.570312 -10.148438 4.523438 -10.148438 C 2.433594 -10.148438 0.925781 -8.890625 0.910156 -7.191406 C 0.910156 -5.757812 1.777344 -4.949219 3.808594 -4.523438 L 5.355469 -4.214844 C 6.996094 -3.886719 7.710938 -3.421875 7.710938 -2.667969 C 7.710938 -1.664062 6.53125 -0.945312 5.003906 -0.945312 C 3.265625 -0.945312 1.953125 -1.894531 1.835938 -3.246094 L 0.386719 -2.957031 C 0.558594 -0.871094 2.570312 0.386719 5.003906 0.386719 Z M 5.003906 0.386719 "/></g></g></g><g clip-path="url(#66129560ef)"><g clip-path="url(#1996610cfa)"><path fill="#ed5b2d" d="M 613.03125 173.824219 L 619.796875 173.824219 L 619.796875 178.332031 L 613.03125 178.332031 Z M 622.054688 173.824219 L 628.820312 173.824219 L 628.820312 178.332031 L 622.054688 178.332031 Z M 631.078125 173.824219 L 637.84375 173.824219 L 637.84375 178.332031 L 631.078125 178.332031 Z M 640.097656 173.824219 L 646.867188 173.824219 L 646.867188 178.332031 L 640.097656 178.332031 Z M 649.121094 173.824219 L 655.890625 173.824219 L 655.890625 178.332031 L 649.121094 178.332031 Z M 658.144531 173.824219 L 664.914062 173.824219 L 664.914062 178.332031 L 658.144531 178.332031 Z M 667.167969 173.824219 L 673.933594 173.824219 L 673.933594 178.332031 L 667.167969 178.332031 Z M 676.191406 173.824219 L 682.957031 173.824219 L 682.957031 178.332031 L 676.191406 178.332031 Z M 685.214844 173.824219 L 691.980469 173.824219 L 691.980469 178.332031 L 685.214844 178.332031 Z M 694.234375 173.824219 L 701.003906 173.824219 L 701.003906 178.332031 L 694.234375 178.332031 Z M 703.296875 173.828125 C 705.769531 173.859375 708.191406 174.199219 710.558594 174.835938 L 709.378906 179.191406 C 707.378906 178.648438 705.328125 178.363281 703.234375 178.335938 Z M 712.890625 175.574219 C 715.195312 176.410156 717.367188 177.523438 719.398438 178.910156 L 716.855469 182.632812 C 715.136719 181.460938 713.300781 180.519531 711.351562 179.8125 Z M 721.359375 180.371094 C 723.269531 181.921875 724.957031 183.679688 726.421875 185.652344 L 722.804688 188.34375 C 721.5625 186.675781 720.132812 185.183594 718.515625 183.871094 Z M 727.800781 187.667969 C 729.097656 189.757812 730.117188 191.972656 730.855469 194.3125 L 726.550781 195.667969 C 725.929688 193.6875 725.066406 191.816406 723.96875 190.050781 Z M 731.496094 196.683594 C 731.96875 198.796875 732.207031 200.945312 732.207031 203.128906 L 732.207031 203.910156 L 727.695312 203.910156 L 727.695312 203.128906 C 727.695312 201.277344 727.496094 199.460938 727.09375 197.671875 Z M 732.207031 206.164062 L 732.207031 212.925781 L 727.695312 212.925781 L 727.695312 206.164062 Z M 732.207031 215.183594 L 732.207031 221.945312 L 727.695312 221.945312 L 727.695312 215.183594 Z M 732.207031 224.21875 C 732.191406 226.691406 731.871094 229.113281 731.246094 231.484375 L 726.882812 230.339844 C 727.410156 228.335938 727.679688 226.285156 727.695312 224.191406 Z M 730.527344 233.824219 C 729.707031 236.132812 728.613281 238.3125 727.238281 240.351562 L 723.496094 237.835938 C 724.65625 236.109375 725.582031 234.269531 726.277344 232.316406 Z M 725.789062 242.324219 C 724.253906 244.242188 722.507812 245.941406 720.546875 247.421875 L 717.828125 243.824219 C 719.488281 242.570312 720.96875 241.132812 722.269531 239.507812 Z M 718.535156 248.8125 C 716.457031 250.128906 714.25 251.164062 711.914062 251.917969 L 710.527344 247.625 C 712.5 246.988281 714.367188 246.113281 716.125 245 Z M 709.546875 252.574219 C 707.367188 253.078125 705.144531 253.332031 702.886719 253.332031 L 702.304688 253.332031 L 702.304688 248.824219 L 702.886719 248.824219 C 704.800781 248.824219 706.679688 248.609375 708.527344 248.179688 Z M 700.050781 253.332031 L 693.28125 253.332031 L 693.28125 248.824219 L 700.050781 248.824219 Z M 691.027344 253.332031 L 684.257812 253.332031 L 684.257812 248.824219 L 691.027344 248.824219 Z M 682.003906 253.332031 L 675.238281 253.332031 L 675.238281 248.824219 L 682.003906 248.824219 Z M 672.980469 253.332031 L 666.214844 253.332031 L 666.214844 248.824219 L 672.980469 248.824219 Z M 663.957031 253.332031 L 657.191406 253.332031 L 657.191406 248.824219 L 663.957031 248.824219 Z M 654.933594 253.332031 L 648.167969 253.332031 L 648.167969 248.824219 L 654.933594 248.824219 Z M 645.914062 253.332031 L 639.144531 253.332031 L 639.144531 248.824219 L 645.914062 248.824219 Z M 636.890625 253.332031 L 630.121094 253.332031 L 630.121094 248.824219 L 636.890625 248.824219 Z M 627.867188 253.332031 L 621.101562 253.332031 L 621.101562 248.824219 L 627.867188 248.824219 Z M 618.84375 253.332031 L 613.03125 253.332031 C 612.679688 253.332031 612.332031 253.328125 611.980469 253.3125 L 612.140625 248.808594 C 612.4375 248.816406 612.734375 248.824219 613.03125 248.824219 L 618.84375 248.824219 Z M 609.53125 253.125 C 607.089844 252.835938 604.726562 252.246094 602.441406 251.363281 L 604.070312 247.15625 C 606.003906 247.90625 608 248.402344 610.066406 248.648438 Z M 600.199219 250.382812 C 597.992188 249.308594 595.949219 247.972656 594.070312 246.382812 L 596.992188 242.945312 C 598.578125 244.292969 600.308594 245.421875 602.175781 246.332031 Z M 592.277344 244.726562 C 590.539062 242.984375 589.042969 241.058594 587.792969 238.949219 L 591.671875 236.652344 C 592.734375 238.4375 593.996094 240.066406 595.46875 241.542969 Z M 586.632812 236.796875 C 585.558594 234.578125 584.777344 232.265625 584.289062 229.851562 L 588.710938 228.957031 C 589.125 231 589.785156 232.953125 590.691406 234.828125 Z M 583.910156 227.460938 C 583.777344 226.324219 583.710938 225.179688 583.710938 224.027344 L 583.710938 220.410156 L 588.222656 220.410156 L 588.222656 224.027344 C 588.222656 225.003906 588.277344 225.972656 588.390625 226.9375 Z M 583.710938 218.15625 L 583.710938 211.394531 L 588.222656 211.394531 L 588.222656 218.15625 Z M 583.710938 209.136719 L 583.710938 203.128906 C 583.710938 202.851562 583.714844 202.574219 583.722656 202.296875 L 588.230469 202.421875 C 588.226562 202.660156 588.222656 202.894531 588.222656 203.128906 L 588.222656 209.136719 Z M 583.894531 199.84375 C 584.167969 197.402344 584.738281 195.035156 585.605469 192.742188 L 589.824219 194.34375 C 589.089844 196.277344 588.609375 198.28125 588.375 200.34375 Z M 586.566406 190.496094 C 587.628906 188.285156 588.945312 186.234375 590.527344 184.34375 L 593.988281 187.234375 C 592.652344 188.835938 591.535156 190.570312 590.636719 192.441406 Z M 592.167969 182.535156 C 593.898438 180.789062 595.8125 179.28125 597.917969 178.011719 L 600.246094 181.875 C 598.464844 182.945312 596.84375 184.222656 595.378906 185.707031 Z M 600.0625 176.839844 C 602.273438 175.75 604.582031 174.949219 606.992188 174.445312 L 607.917969 178.859375 C 605.878906 179.285156 603.929688 179.960938 602.058594 180.882812 Z M 609.382812 174.046875 C 610.589844 173.898438 611.804688 173.824219 613.03125 173.824219 L 613.03125 178.332031 C 611.992188 178.332031 610.960938 178.394531 609.9375 178.523438 Z M 609.382812 174.046875 " fill-opacity="1" fill-rule="nonzero"/></g></g><g fill="#f8dcbf" fill-opacity="1"><g transform="translate(599.083743, 217.328157)"><g><path d="M 0.191406 0 L 1.914062 0 L 3.167969 -3.265625 L 9.742188 -3.265625 L 10.976562 0 L 12.679688 0 L 7.421875 -13.625 L 5.488281 -13.625 Z M 3.632812 -4.695312 L 6.4375 -12.042969 L 6.476562 -12.042969 L 9.257812 -4.695312 Z M 3.632812 -4.695312 "/></g></g></g><g fill="#f8dcbf" fill-opacity="1"><g transform="translate(611.953687, 217.328157)"><g><path d="M 5.199219 4.445312 C 8.484375 4.445312 10.667969 2.398438 10.667969 -0.773438 L 10.667969 -9.761719 L 9.355469 -9.761719 L 9.199219 -8.175781 L 9.179688 -8.175781 C 8.386719 -9.316406 6.878906 -10.109375 5.46875 -10.109375 C 2.589844 -10.109375 0.597656 -8.019531 0.597656 -4.949219 C 0.597656 -1.953125 2.589844 0.117188 5.46875 0.117188 C 6.84375 0.117188 8.386719 -0.636719 9.160156 -1.855469 L 9.179688 -1.855469 L 9.179688 -0.773438 C 9.179688 1.585938 7.578125 3.113281 5.160156 3.113281 C 3.382812 3.113281 1.71875 2.222656 0.945312 0.871094 L -0.191406 1.835938 C 0.753906 3.402344 2.898438 4.445312 5.199219 4.445312 Z M 5.664062 -1.21875 C 3.535156 -1.21875 2.066406 -2.746094 2.066406 -4.949219 C 2.066406 -7.226562 3.535156 -8.792969 5.664062 -8.792969 C 7.769531 -8.792969 9.238281 -7.132812 9.238281 -4.949219 C 9.238281 -2.820312 7.769531 -1.21875 5.664062 -1.21875 Z M 5.664062 -1.21875 "/></g></g></g><g fill="#f8dcbf" fill-opacity="1"><g transform="translate(623.58688, 217.328157)"><g><path d="M 5.199219 4.445312 C 8.484375 4.445312 10.667969 2.398438 10.667969 -0.773438 L 10.667969 -9.761719 L 9.355469 -9.761719 L 9.199219 -8.175781 L 9.179688 -8.175781 C 8.386719 -9.316406 6.878906 -10.109375 5.46875 -10.109375 C 2.589844 -10.109375 0.597656 -8.019531 0.597656 -4.949219 C 0.597656 -1.953125 2.589844 0.117188 5.46875 0.117188 C 6.84375 0.117188 8.386719 -0.636719 9.160156 -1.855469 L 9.179688 -1.855469 L 9.179688 -0.773438 C 9.179688 1.585938 7.578125 3.113281 5.160156 3.113281 C 3.382812 3.113281 1.71875 2.222656 0.945312 0.871094 L -0.191406 1.835938 C 0.753906 3.402344 2.898438 4.445312 5.199219 4.445312 Z M 5.664062 -1.21875 C 3.535156 -1.21875 2.066406 -2.746094 2.066406 -4.949219 C 2.066406 -7.226562 3.535156 -8.792969 5.664062 -8.792969 C 7.769531 -8.792969 9.238281 -7.132812 9.238281 -4.949219 C 9.238281 -2.820312 7.769531 -1.21875 5.664062 -1.21875 Z M 5.664062 -1.21875 "/></g></g></g><g fill="#f8dcbf" fill-opacity="1"><g transform="translate(635.220073, 217.328157)"><g><path d="M 5.199219 -10.167969 C 3.960938 -10.167969 2.917969 -9.414062 2.378906 -8.234375 L 2.359375 -8.234375 L 2.222656 -9.761719 L 0.964844 -9.761719 L 0.964844 0 L 2.433594 0 L 2.433594 -5.371094 C 2.433594 -7.5 3.421875 -8.792969 4.988281 -8.792969 C 6.050781 -8.792969 6.765625 -8.058594 6.917969 -6.6875 L 8.195312 -7.113281 C 8 -9.066406 6.859375 -10.167969 5.199219 -10.167969 Z M 5.199219 -10.167969 "/></g></g></g><g fill="#f8dcbf" fill-opacity="1"><g transform="translate(643.80004, 217.328157)"><g><path d="M 5.972656 0.386719 C 8.15625 0.386719 9.992188 -0.714844 10.628906 -2.28125 L 9.355469 -2.800781 C 8.8125 -1.738281 7.519531 -0.945312 5.992188 -0.945312 C 3.886719 -0.945312 2.320312 -2.359375 2.105469 -4.386719 L 10.320312 -4.386719 C 10.339844 -4.582031 10.339844 -4.792969 10.339844 -4.96875 C 10.300781 -7.980469 8.425781 -10.148438 5.566406 -10.148438 C 2.667969 -10.148438 0.578125 -7.980469 0.578125 -4.988281 C 0.578125 -1.875 2.859375 0.386719 5.972656 0.386719 Z M 2.125 -5.683594 C 2.398438 -7.539062 3.730469 -8.792969 5.546875 -8.792969 C 7.324219 -8.792969 8.582031 -7.671875 8.773438 -5.683594 Z M 2.125 -5.683594 "/></g></g></g><g fill="#f8dcbf" fill-opacity="1"><g transform="translate(654.892157, 217.328157)"><g><path d="M 5.199219 4.445312 C 8.484375 4.445312 10.667969 2.398438 10.667969 -0.773438 L 10.667969 -9.761719 L 9.355469 -9.761719 L 9.199219 -8.175781 L 9.179688 -8.175781 C 8.386719 -9.316406 6.878906 -10.109375 5.46875 -10.109375 C 2.589844 -10.109375 0.597656 -8.019531 0.597656 -4.949219 C 0.597656 -1.953125 2.589844 0.117188 5.46875 0.117188 C 6.84375 0.117188 8.386719 -0.636719 9.160156 -1.855469 L 9.179688 -1.855469 L 9.179688 -0.773438 C 9.179688 1.585938 7.578125 3.113281 5.160156 3.113281 C 3.382812 3.113281 1.71875 2.222656 0.945312 0.871094 L -0.191406 1.835938 C 0.753906 3.402344 2.898438 4.445312 5.199219 4.445312 Z M 5.664062 -1.21875 C 3.535156 -1.21875 2.066406 -2.746094 2.066406 -4.949219 C 2.066406 -7.226562 3.535156 -8.792969 5.664062 -8.792969 C 7.769531 -8.792969 9.238281 -7.132812 9.238281 -4.949219 C 9.238281 -2.820312 7.769531 -1.21875 5.664062 -1.21875 Z M 5.664062 -1.21875 "/></g></g></g><g fill="#f8dcbf" fill-opacity="1"><g transform="translate(666.52535, 217.328157)"><g><path d="M 4.15625 0.386719 C 5.894531 0.386719 7.246094 -0.386719 7.945312 -1.625 L 7.964844 -1.625 L 7.980469 -1.179688 C 8.039062 -0.289062 8.640625 0.386719 9.585938 0.386719 C 10.339844 0.386719 11.152344 -0.0195312 11.558594 -0.617188 L 10.765625 -1.546875 C 10.554688 -1.199219 10.242188 -0.964844 9.972656 -0.964844 C 9.664062 -0.964844 9.449219 -1.238281 9.449219 -1.625 L 9.449219 -6.570312 C 9.449219 -8.753906 7.691406 -10.148438 5.199219 -10.148438 C 2.667969 -10.148438 0.773438 -8.640625 0.597656 -7.035156 L 1.933594 -6.476562 C 2.011719 -7.632812 3.304688 -8.8125 5.140625 -8.8125 C 6.84375 -8.8125 8 -8.019531 8 -6.804688 C 8 -6.378906 7.691406 -6.109375 7.210938 -6.050781 L 4.792969 -5.757812 C 1.625 -5.371094 0.386719 -4.117188 0.386719 -2.550781 C 0.386719 -0.8125 1.933594 0.386719 4.15625 0.386719 Z M 4.40625 -0.945312 C 2.917969 -0.945312 1.855469 -1.585938 1.855469 -2.570312 C 1.855469 -3.460938 2.589844 -4.214844 4.949219 -4.503906 L 7.964844 -4.871094 L 7.964844 -4.175781 C 7.964844 -2.28125 6.457031 -0.945312 4.40625 -0.945312 Z M 4.40625 -0.945312 "/></g></g></g><g fill="#f8dcbf" fill-opacity="1"><g transform="translate(678.081249, 217.328157)"><g><path d="M 5.21875 0.386719 C 6.878906 0.386719 8.367188 -0.65625 8.640625 -2.359375 L 7.441406 -2.859375 C 7.246094 -1.605469 6.339844 -0.890625 5.355469 -0.890625 C 4.289062 -0.890625 3.613281 -1.679688 3.613281 -2.78125 L 3.613281 -8.542969 L 7.980469 -8.542969 L 7.980469 -9.761719 L 3.613281 -9.761719 L 3.613281 -13.007812 L 2.144531 -12.660156 L 2.144531 -9.761719 L 0 -9.761719 L 0 -8.542969 L 2.144531 -8.542969 L 2.144531 -2.628906 C 2.144531 -0.851562 3.382812 0.386719 5.21875 0.386719 Z M 5.21875 0.386719 "/></g></g></g><g fill="#f8dcbf" fill-opacity="1"><g transform="translate(686.796485, 217.328157)"><g><path d="M 5.777344 0.386719 C 8.929688 0.386719 10.996094 -1.699219 10.996094 -4.871094 C 10.996094 -8.058594 8.929688 -10.148438 5.777344 -10.148438 C 2.648438 -10.148438 0.578125 -8.058594 0.578125 -4.871094 C 0.578125 -1.699219 2.648438 0.386719 5.777344 0.386719 Z M 5.777344 -0.945312 C 3.519531 -0.945312 2.046875 -2.492188 2.046875 -4.871094 C 2.046875 -7.246094 3.519531 -8.792969 5.777344 -8.792969 C 8.039062 -8.792969 9.507812 -7.246094 9.507812 -4.871094 C 9.507812 -2.492188 8.039062 -0.945312 5.777344 -0.945312 Z M 5.777344 -0.945312 "/></g></g></g><g fill="#f8dcbf" fill-opacity="1"><g transform="translate(698.371703, 217.328157)"><g><path d="M 5.199219 -10.167969 C 3.960938 -10.167969 2.917969 -9.414062 2.378906 -8.234375 L 2.359375 -8.234375 L 2.222656 -9.761719 L 0.964844 -9.761719 L 0.964844 0 L 2.433594 0 L 2.433594 -5.371094 C 2.433594 -7.5 3.421875 -8.792969 4.988281 -8.792969 C 6.050781 -8.792969 6.765625 -8.058594 6.917969 -6.6875 L 8.195312 -7.113281 C 8 -9.066406 6.859375 -10.167969 5.199219 -10.167969 Z M 5.199219 -10.167969 "/></g></g></g><g fill="#f8dcbf" fill-opacity="1"><g transform="translate(706.951669, 217.328157)"><g><path d="M 5.003906 0.386719 C 7.363281 0.386719 9.140625 -0.964844 9.140625 -2.800781 C 9.140625 -4.253906 8.15625 -5.0625 5.855469 -5.546875 L 4.269531 -5.855469 C 2.917969 -6.144531 2.339844 -6.550781 2.339844 -7.265625 C 2.359375 -8.097656 3.265625 -8.851562 4.503906 -8.851562 C 5.894531 -8.851562 6.917969 -8.097656 7.054688 -7.074219 L 8.464844 -7.460938 C 8.097656 -9.046875 6.570312 -10.148438 4.523438 -10.148438 C 2.433594 -10.148438 0.925781 -8.890625 0.910156 -7.191406 C 0.910156 -5.757812 1.777344 -4.949219 3.808594 -4.523438 L 5.355469 -4.214844 C 6.996094 -3.886719 7.710938 -3.421875 7.710938 -2.667969 C 7.710938 -1.664062 6.53125 -0.945312 5.003906 -0.945312 C 3.265625 -0.945312 1.953125 -1.894531 1.835938 -3.246094 L 0.386719 -2.957031 C 0.558594 -0.871094 2.570312 0.386719 5.003906 0.386719 Z M 5.003906 0.386719 "/></g></g></g><path stroke-linecap="butt" transform="matrix(0.752869, 0, 0, 0.75, 182.0412, 213.578832)" fill="none" stroke-linejoin="miter" d="M 0.00234936 1.999058 L 29.856892 1.999058 " stroke="#f8dcbf" stroke-width="4" stroke-opacity="1" stroke-miterlimit="4"/><path stroke-linecap="round" transform="matrix(3.011476, 0, 0, 3, 212.802274, 215.078832)" fill-opacity="1" fill="#f8dcbf" fill-rule="nonzero" stroke-linejoin="round" d="M -2.500048 -1.500236 L -0.499887 -0.000235591 L -2.500048 1.499765 Z M -2.500048 -1.500236 " stroke="#f8dcbf" stroke-width="1" stroke-opacity="1" stroke-miterlimit="4"/><path stroke-linecap="butt" transform="matrix(0.758089, 0, 0, 0.75, 356.326217, 213.578832)" fill="none" stroke-linejoin="miter" d="M 0.00251634 1.999058 L 29.574189 1.999058 " stroke="#f8dcbf" stroke-width="4" stroke-opacity="1" stroke-miterlimit="4"/><path stroke-linecap="round" transform="matrix(3.032357, 0, 0, 3, 387.084711, 215.078832)" fill-opacity="1" fill="#f8dcbf" fill-rule="nonzero" stroke-linejoin="round" d="M -2.499971 -1.500236 L -0.499413 -0.000235591 L -2.499971 1.499765 Z M -2.499971 -1.500236 " stroke="#f8dcbf" stroke-width="1" stroke-opacity="1" stroke-miterlimit="4"/><path stroke-linecap="butt" transform="matrix(0.376189, -0.646808, 0.64832, 0.377069, 529.099893, 214.322649)" fill="none" stroke-linejoin="miter" d="M -0.000265793 2.003092 L 136.353022 2.000539 " stroke="#f8dcbf" stroke-width="4" stroke-opacity="1" stroke-miterlimit="4"/><path stroke-linecap="round" transform="matrix(1.504757, -2.587231, 2.59328, 1.508275, 585.827968, 119.769689)" fill-opacity="1" fill="#f8dcbf" fill-rule="nonzero" stroke-linejoin="round" d="M -2.500412 -1.499905 L -0.499998 -0.000529826 L -2.499775 1.500268 Z M -2.500412 -1.499905 " stroke="#f8dcbf" stroke-width="1" stroke-opacity="1" stroke-miterlimit="4"/><path stroke-linecap="butt" transform="matrix(0.748594, -0.0211731, 0.0212044, 0.7497, 530.35526, 213.579403)" fill="none" stroke-linejoin="miter" d="M 0.00105119 1.999125 L 63.108962 1.999459 " stroke="#f8dcbf" stroke-width="4" stroke-opacity="1" stroke-miterlimit="4"/><path stroke-linecap="round" transform="matrix(2.994375, -0.0846923, 0.0848175, 2.9988, 585.87676, 213.509633)" fill-opacity="1" fill="#f8dcbf" fill-rule="nonzero" stroke-linejoin="round" d="M -2.500622 -1.500186 L -0.500211 -0.000405315 L -2.499498 1.499743 Z M -2.500622 -1.500186 " stroke="#f8dcbf" stroke-width="1" stroke-opacity="1" stroke-miterlimit="4"/><path stroke-linecap="butt" transform="matrix(0.38825, 0.644452, -0.642425, 0.387028, 531.68042, 214.308456)" fill="none" stroke-linejoin="miter" d="M -0.00126012 2.000857 L 132.558913 2.003332 " stroke="#f8dcbf" stroke-width="4" stroke-opacity="1" stroke-miterlimit="4"/><path stroke-linecap="round" transform="matrix(1.552998, 2.57781, -2.569698, 1.548112, 586.132048, 307.599057)" fill-opacity="1" fill="#f8dcbf" fill-rule="nonzero" stroke-linejoin="round" d="M -2.49986 -1.500448 L -0.500457 -0.000245236 L -2.50012 1.500112 Z M -2.49986 -1.500448 " stroke="#f8dcbf" stroke-width="1" stroke-opacity="1" stroke-miterlimit="4"/><g clip-path="url(#da11752bbd)"><path fill="#1679ed" d="M 51.585938 319.171875 C 58.863281 319.171875 64.769531 325.046875 64.769531 332.296875 C 64.769531 339.542969 58.863281 345.421875 51.585938 345.421875 C 44.304688 345.421875 38.402344 339.542969 38.402344 332.296875 C 38.402344 325.046875 44.304688 319.171875 51.585938 319.171875 Z M 51.585938 340.5 C 52.132812 340.5 52.671875 340.445312 53.207031 340.339844 C 53.742188 340.230469 54.261719 340.074219 54.765625 339.863281 C 55.269531 339.652344 55.746094 339.394531 56.199219 339.09375 C 56.652344 338.789062 57.070312 338.441406 57.453125 338.054688 C 57.835938 337.667969 58.175781 337.246094 58.476562 336.792969 C 58.777344 336.335938 59.027344 335.859375 59.230469 335.355469 C 59.433594 334.847656 59.585938 334.328125 59.6875 333.796875 C 59.785156 333.261719 59.832031 332.722656 59.824219 332.179688 C 59.761719 327.761719 56.140625 324.15625 51.703125 324.09375 L 51.585938 324.09375 C 51.042969 324.09375 50.507812 324.144531 49.976562 324.25 C 49.445312 324.355469 48.933594 324.511719 48.433594 324.714844 C 47.933594 324.921875 47.457031 325.175781 47.007812 325.476562 C 46.558594 325.773438 46.140625 326.113281 45.757812 326.496094 C 45.375 326.875 45.035156 327.289062 44.734375 327.738281 C 44.433594 328.1875 44.179688 328.660156 43.972656 329.15625 C 43.765625 329.652344 43.609375 330.167969 43.503906 330.695312 C 43.398438 331.222656 43.347656 331.757812 43.347656 332.296875 C 43.886719 332.296875 44.421875 332.347656 44.953125 332.453125 C 45.484375 332.558594 46 332.714844 46.5 332.917969 C 47 333.125 47.472656 333.378906 47.921875 333.679688 C 48.375 333.976562 48.789062 334.316406 49.171875 334.699219 C 49.554688 335.078125 49.894531 335.492188 50.195312 335.941406 C 50.496094 336.390625 50.75 336.863281 50.957031 337.359375 C 51.164062 337.855469 51.320312 338.371094 51.425781 338.898438 C 51.53125 339.425781 51.585938 339.960938 51.585938 340.5 Z M 51.585938 340.5 " fill-opacity="1" fill-rule="nonzero"/></g><path fill="#ffffff" d="M 69.710938 334.929688 L 73.109375 334.976562 C 73.167969 335.773438 73.511719 336.421875 74.136719 336.921875 C 74.746094 337.421875 75.542969 337.671875 76.53125 337.671875 C 77.332031 337.671875 77.980469 337.503906 78.484375 337.175781 C 78.984375 336.84375 79.234375 336.382812 79.234375 335.78125 C 79.246094 335.492188 79.171875 335.222656 79.015625 334.976562 C 78.867188 334.761719 78.59375 334.574219 78.195312 334.414062 C 77.816406 334.257812 77.425781 334.136719 77.027344 334.046875 C 76.648438 333.960938 76.066406 333.84375 75.28125 333.6875 C 74.746094 333.597656 74.21875 333.472656 73.699219 333.320312 C 73.214844 333.171875 72.75 332.980469 72.300781 332.746094 C 71.859375 332.527344 71.46875 332.242188 71.121094 331.890625 C 70.792969 331.535156 70.539062 331.128906 70.371094 330.675781 C 70.167969 330.132812 70.070312 329.570312 70.082031 328.992188 C 70.082031 327.582031 70.640625 326.414062 71.757812 325.484375 C 72.875 324.554688 74.296875 324.09375 76.019531 324.09375 C 77.855469 324.09375 79.367188 324.582031 80.5625 325.566406 C 81.757812 326.546875 82.371094 327.789062 82.402344 329.292969 L 79.003906 329.292969 C 78.9375 328.597656 78.632812 328.035156 78.082031 327.601562 C 77.542969 327.164062 76.855469 326.945312 76.023438 326.945312 C 75.285156 326.945312 74.6875 327.097656 74.234375 327.40625 C 73.78125 327.710938 73.550781 328.15625 73.550781 328.738281 C 73.550781 329.335938 73.839844 329.761719 74.417969 330.015625 C 74.996094 330.269531 76.023438 330.527344 77.503906 330.789062 C 78.046875 330.878906 78.582031 330.996094 79.109375 331.144531 C 79.59375 331.285156 80.058594 331.46875 80.507812 331.695312 C 80.949219 331.90625 81.339844 332.183594 81.6875 332.523438 C 82.019531 332.878906 82.265625 333.28125 82.433594 333.734375 C 82.632812 334.277344 82.730469 334.835938 82.722656 335.414062 C 82.707031 336.871094 82.109375 338.085938 80.929688 339.050781 C 79.75 340.015625 78.269531 340.5 76.484375 340.5 C 74.480469 340.5 72.859375 339.976562 71.617188 338.933594 C 70.378906 337.890625 69.742188 336.554688 69.710938 334.929688 Z M 69.710938 334.929688 " fill-opacity="1" fill-rule="nonzero"/><path fill="#ffffff" d="M 85.34375 336.890625 L 85.34375 331.316406 L 83.378906 331.316406 L 83.378906 328.535156 L 85.34375 328.535156 L 85.34375 325.195312 L 88.601562 325.195312 L 88.601562 328.535156 L 91.304688 328.535156 L 91.304688 331.316406 L 88.601562 331.316406 L 88.601562 336.496094 C 88.601562 336.878906 88.679688 337.152344 88.835938 337.3125 C 88.988281 337.472656 89.257812 337.554688 89.644531 337.554688 L 91.585938 337.554688 L 91.585938 340.363281 L 88.8125 340.363281 C 86.5 340.363281 85.34375 339.203125 85.34375 336.890625 Z M 85.34375 336.890625 " fill-opacity="1" fill-rule="nonzero"/><path fill="#ffffff" d="M 104.148438 337.609375 L 104.632812 337.609375 L 104.632812 340.394531 L 102.96875 340.394531 C 101.519531 340.394531 100.757812 339.835938 100.679688 338.714844 C 99.789062 339.929688 98.578125 340.535156 97.054688 340.535156 C 95.714844 340.535156 94.628906 340.226562 93.796875 339.613281 C 92.964844 339.003906 92.546875 338.144531 92.550781 337.039062 C 92.550781 335.75 93.003906 334.765625 93.914062 334.089844 C 94.820312 333.417969 96.148438 333.078125 97.886719 333.078125 L 100.292969 333.078125 L 100.292969 332.550781 C 100.304688 332.054688 100.113281 331.660156 99.714844 331.363281 C 99.328125 331.066406 98.800781 330.917969 98.140625 330.917969 C 97.554688 330.917969 97.066406 331.042969 96.683594 331.296875 C 96.296875 331.535156 96.066406 331.875 95.988281 332.320312 L 92.824219 332.320312 C 92.929688 331.078125 93.472656 330.121094 94.453125 329.445312 C 95.429688 328.769531 96.714844 328.433594 98.300781 328.433594 C 99.964844 328.433594 101.253906 328.800781 102.160156 329.535156 C 103.070312 330.273438 103.523438 331.339844 103.523438 332.730469 L 103.523438 336.964844 C 103.523438 337.394531 103.730469 337.609375 104.148438 337.609375 Z M 100.289062 335.515625 L 100.289062 335.378906 L 97.789062 335.378906 C 96.480469 335.378906 95.824219 335.855469 95.824219 336.804688 C 95.816406 337.199219 95.976562 337.511719 96.300781 337.738281 C 96.613281 337.976562 97.035156 338.09375 97.558594 338.09375 C 98.390625 338.09375 99.050781 337.859375 99.535156 337.394531 C 100.023438 336.925781 100.273438 336.300781 100.289062 335.515625 Z M 100.289062 335.515625 " fill-opacity="1" fill-rule="nonzero"/><path fill="#ffffff" d="M 116.691406 335.851562 C 116.460938 337.296875 115.847656 338.429688 114.851562 339.257812 C 113.859375 340.085938 112.5625 340.5 110.957031 340.5 C 109.109375 340.5 107.628906 339.945312 106.519531 338.839844 C 105.410156 337.738281 104.855469 336.265625 104.855469 334.421875 C 104.855469 332.597656 105.414062 331.136719 106.53125 330.039062 C 107.648438 328.941406 109.140625 328.394531 111.003906 328.394531 C 112.59375 328.394531 113.878906 328.796875 114.863281 329.601562 C 115.851562 330.40625 116.460938 331.523438 116.691406 332.949219 L 113.339844 332.949219 C 113.183594 332.378906 112.902344 331.929688 112.496094 331.601562 C 112.085938 331.273438 111.574219 331.109375 110.957031 331.113281 C 110.109375 331.113281 109.4375 331.417969 108.9375 332.023438 C 108.4375 332.628906 108.183594 333.429688 108.183594 334.429688 C 108.183594 335.441406 108.4375 336.253906 108.949219 336.867188 C 109.457031 337.480469 110.125 337.789062 110.957031 337.785156 C 111.605469 337.785156 112.136719 337.613281 112.554688 337.269531 C 112.96875 336.921875 113.238281 336.453125 113.363281 335.851562 Z M 116.691406 335.851562 " fill-opacity="1" fill-rule="nonzero"/><path fill="#ffffff" d="M 117.652344 324.09375 L 120.910156 324.09375 L 120.910156 333.527344 L 125.511719 328.535156 L 129.207031 328.535156 L 124.957031 333.183594 L 129.417969 340.363281 L 125.625 340.363281 L 122.644531 335.578125 L 120.910156 337.464844 L 120.910156 340.363281 L 117.652344 340.363281 Z M 117.652344 324.09375 " fill-opacity="1" fill-rule="nonzero"/><path fill="#ffffff" d="M 138.269531 328.535156 L 141.53125 328.535156 L 141.53125 340.363281 L 138.664062 340.363281 L 138.363281 339.210938 C 137.441406 340.070312 136.300781 340.5 134.941406 340.5 C 133.523438 340.5 132.375 340.078125 131.5 339.234375 C 130.621094 338.390625 130.179688 336.972656 130.179688 334.976562 L 130.179688 328.535156 L 133.4375 328.535156 L 133.4375 334.632812 C 133.4375 336.703125 134.203125 337.738281 135.726562 337.738281 C 136.542969 337.738281 137.171875 337.453125 137.613281 336.875 C 138.050781 336.300781 138.269531 335.484375 138.269531 334.425781 Z M 138.269531 328.535156 " fill-opacity="1" fill-rule="nonzero"/><g clip-path="url(#e7d5b462eb)"><path fill="#ffffff" d="M 149.757812 328.394531 C 151.40625 328.378906 152.757812 328.917969 153.8125 330.007812 C 154.871094 331.097656 155.398438 332.578125 155.394531 334.449219 C 155.394531 336.257812 154.867188 337.71875 153.8125 338.832031 C 152.757812 339.945312 151.414062 340.5 149.78125 340.5 C 148.316406 340.5 147.152344 340.046875 146.289062 339.140625 L 146.289062 345.421875 L 143.027344 345.421875 L 143.027344 328.535156 L 145.871094 328.535156 L 146.195312 329.9375 C 147.136719 328.910156 148.324219 328.394531 149.757812 328.394531 Z M 149.136719 337.808594 C 150.03125 337.808594 150.742188 337.496094 151.273438 336.875 C 151.804688 336.253906 152.070312 335.4375 152.070312 334.425781 C 152.070312 333.429688 151.804688 332.621094 151.273438 332.007812 C 150.742188 331.394531 150.03125 331.089844 149.136719 331.089844 C 148.257812 331.089844 147.554688 331.394531 147.03125 332.007812 C 146.507812 332.621094 146.246094 333.417969 146.246094 334.402344 C 146.246094 335.414062 146.507812 336.234375 147.03125 336.863281 C 147.554688 337.492188 148.257812 337.808594 149.136719 337.808594 Z M 149.136719 337.808594 " fill-opacity="1" fill-rule="nonzero"/></g><g fill="#f6f6e9" fill-opacity="1"><g transform="translate(38.400011, 76.424965)"><g><path d="M 18.535156 1.125 C 27.265625 1.125 33.472656 -4.050781 34.597656 -12.191406 L 29.289062 -13.136719 C 28.433594 -7.421875 24.25 -3.734375 18.582031 -3.734375 C 11.5625 -3.734375 7.109375 -8.503906 7.0625 -15.925781 C 7.0625 -23.394531 11.15625 -28.121094 17.636719 -28.121094 C 22.359375 -28.121094 25.78125 -25.105469 26.636719 -20.246094 L 31.855469 -21.550781 C 30.550781 -28.523438 24.972656 -33.023438 17.636719 -33.023438 C 7.695312 -33.023438 1.484375 -26.367188 1.484375 -15.925781 C 1.484375 -5.535156 8.097656 1.125 18.535156 1.125 Z M 18.535156 1.125 "/></g></g></g><g fill="#f6f6e9" fill-opacity="1"><g transform="translate(72.770839, 76.424965)"><g><path d="M 13.632812 0.898438 C 21.144531 0.898438 26.09375 -4.003906 26.09375 -11.429688 C 26.09375 -18.898438 21.144531 -23.800781 13.632812 -23.800781 C 6.117188 -23.800781 1.167969 -18.898438 1.167969 -11.429688 C 1.167969 -4.003906 6.117188 0.898438 13.632812 0.898438 Z M 13.632812 -3.417969 C 9.089844 -3.417969 6.207031 -6.570312 6.207031 -11.429688 C 6.207031 -16.289062 9.089844 -19.390625 13.632812 -19.390625 C 18.132812 -19.390625 21.054688 -16.289062 21.054688 -11.429688 C 21.054688 -6.570312 18.132812 -3.417969 13.632812 -3.417969 Z M 13.632812 -3.417969 "/></g></g></g><g fill="#f6f6e9" fill-opacity="1"><g transform="translate(98.998773, 76.424965)"><g><path d="M 2.023438 0 L 7.109375 0 L 7.109375 -12.644531 C 7.109375 -16.558594 9.222656 -19.257812 12.867188 -19.257812 C 15.792969 -19.257812 17.503906 -17.457031 17.503906 -14.441406 L 17.503906 0 L 22.542969 0 L 22.542969 -12.644531 C 22.542969 -16.558594 24.699219 -19.257812 28.300781 -19.257812 C 31.226562 -19.257812 32.933594 -17.457031 32.933594 -14.441406 L 32.933594 0 L 38.019531 0 L 38.019531 -15.253906 C 38.019531 -20.5625 35.183594 -23.667969 30.460938 -23.667969 C 26.996094 -23.667969 23.890625 -22.136719 22 -18.851562 L 21.957031 -18.851562 C 20.875 -21.957031 18.492188 -23.667969 14.890625 -23.667969 C 11.25 -23.667969 8.277344 -21.957031 6.929688 -19.121094 L 6.882812 -19.121094 L 6.207031 -22.902344 L 2.023438 -22.902344 Z M 2.023438 0 "/></g></g></g><g fill="#f6f6e9" fill-opacity="1"><g transform="translate(137.823446, 76.424965)"><g><path d="M 2.023438 9.449219 L 7.109375 9.449219 L 7.109375 -4.09375 L 7.152344 -4.09375 C 8.953125 -0.988281 11.878906 0.808594 15.566406 0.808594 C 21.910156 0.808594 26.5 -4.230469 26.5 -11.429688 C 26.5 -18.625 21.910156 -23.667969 15.523438 -23.667969 C 11.789062 -23.667969 8.820312 -21.867188 7.0625 -18.71875 L 7.019531 -18.71875 L 6.34375 -22.902344 L 2.023438 -22.902344 Z M 14.171875 -3.644531 C 9.988281 -3.644531 6.929688 -7.019531 6.929688 -11.429688 C 6.929688 -15.882812 9.988281 -19.257812 14.171875 -19.257812 C 18.355469 -19.257812 21.417969 -15.925781 21.417969 -11.429688 C 21.417969 -7.019531 18.355469 -3.644531 14.171875 -3.644531 Z M 14.171875 -3.644531 "/></g></g></g><g fill="#f6f6e9" fill-opacity="1"><g transform="translate(164.456272, 76.424965)"><g><path d="M 13.632812 0.898438 C 21.144531 0.898438 26.09375 -4.003906 26.09375 -11.429688 C 26.09375 -18.898438 21.144531 -23.800781 13.632812 -23.800781 C 6.117188 -23.800781 1.167969 -18.898438 1.167969 -11.429688 C 1.167969 -4.003906 6.117188 0.898438 13.632812 0.898438 Z M 13.632812 -3.417969 C 9.089844 -3.417969 6.207031 -6.570312 6.207031 -11.429688 C 6.207031 -16.289062 9.089844 -19.390625 13.632812 -19.390625 C 18.132812 -19.390625 21.054688 -16.289062 21.054688 -11.429688 C 21.054688 -6.570312 18.132812 -3.417969 13.632812 -3.417969 Z M 13.632812 -3.417969 "/></g></g></g><g fill="#f6f6e9" fill-opacity="1"><g transform="translate(190.684205, 76.424965)"><g><path d="M 15.613281 -23.667969 C 11.789062 -23.667969 8.953125 -22 7.109375 -19.121094 L 7.0625 -19.121094 L 6.433594 -22.902344 L 2.023438 -22.902344 L 2.023438 0 L 7.109375 0 L 7.109375 -12.777344 C 7.109375 -16.691406 9.808594 -19.390625 13.585938 -19.390625 C 16.601562 -19.390625 18.535156 -17.320312 18.535156 -14.039062 L 18.535156 0 L 23.621094 0 L 23.621094 -15.253906 C 23.621094 -20.515625 20.605469 -23.667969 15.613281 -23.667969 Z M 15.613281 -23.667969 "/></g></g></g><g fill="#f6f6e9" fill-opacity="1"><g transform="translate(215.112613, 76.424965)"><g><path d="M 14.351562 0.898438 C 19.347656 0.898438 23.667969 -1.441406 25.285156 -4.8125 L 21.910156 -6.882812 C 20.5625 -4.722656 17.726562 -3.105469 14.488281 -3.105469 C 10.125 -3.105469 6.882812 -5.847656 6.433594 -9.941406 L 24.519531 -9.941406 C 24.65625 -10.484375 24.699219 -11.25 24.699219 -11.878906 C 24.65625 -18.851562 20.113281 -23.800781 13.183594 -23.800781 C 6.117188 -23.800781 1.167969 -18.761719 1.167969 -11.609375 C 1.167969 -4.320312 6.660156 0.898438 14.351562 0.898438 Z M 6.433594 -13.40625 C 6.929688 -17.1875 9.582031 -19.796875 13.183594 -19.796875 C 16.691406 -19.796875 19.121094 -17.457031 19.480469 -13.40625 Z M 6.433594 -13.40625 "/></g></g></g><g fill="#f6f6e9" fill-opacity="1"><g transform="translate(240.350816, 76.424965)"><g><path d="M 15.613281 -23.667969 C 11.789062 -23.667969 8.953125 -22 7.109375 -19.121094 L 7.0625 -19.121094 L 6.433594 -22.902344 L 2.023438 -22.902344 L 2.023438 0 L 7.109375 0 L 7.109375 -12.777344 C 7.109375 -16.691406 9.808594 -19.390625 13.585938 -19.390625 C 16.601562 -19.390625 18.535156 -17.320312 18.535156 -14.039062 L 18.535156 0 L 23.621094 0 L 23.621094 -15.253906 C 23.621094 -20.515625 20.605469 -23.667969 15.613281 -23.667969 Z M 15.613281 -23.667969 "/></g></g></g><g fill="#f6f6e9" fill-opacity="1"><g transform="translate(264.779235, 76.424965)"><g><path d="M 12.777344 0.898438 C 16.378906 0.898438 19.796875 -1.125 20.921875 -4.453125 L 18.445312 -7.109375 C 17.683594 -4.632812 15.882812 -3.285156 13.675781 -3.285156 C 11.429688 -3.285156 9.851562 -4.996094 9.851562 -7.515625 L 9.808594 -18.898438 L 19.527344 -18.898438 L 19.527344 -22.902344 L 9.808594 -22.902344 L 9.851562 -30.550781 L 4.769531 -29.425781 L 4.769531 -22.902344 L 0.0898438 -22.902344 L 0.0898438 -18.898438 L 4.769531 -18.898438 L 4.769531 -6.839844 C 4.769531 -2.160156 7.917969 0.898438 12.777344 0.898438 Z M 12.777344 0.898438 "/></g></g></g><g fill="#f6f6e9" fill-opacity="1"><g transform="translate(284.97872, 76.424965)"><g><path d="M 11.878906 0.855469 C 17.90625 0.855469 22.226562 -2.25 22.226562 -6.75 C 22.226562 -10.347656 19.839844 -12.328125 14.308594 -13.40625 L 10.753906 -14.039062 C 7.785156 -14.667969 6.523438 -15.476562 6.523438 -16.917969 C 6.570312 -18.582031 8.457031 -20.066406 10.976562 -20.066406 C 13.859375 -20.066406 15.972656 -18.535156 16.242188 -16.332031 L 20.742188 -17.1875 C 20.023438 -21.054688 16.199219 -23.710938 11.113281 -23.710938 C 5.757812 -23.710938 2.023438 -20.832031 1.980469 -16.511719 C 1.980469 -13.003906 4.09375 -11.066406 8.953125 -10.167969 L 12.464844 -9.539062 C 16.015625 -8.863281 17.59375 -7.917969 17.59375 -6.34375 C 17.59375 -4.363281 15.164062 -2.96875 12.058594 -2.96875 C 8.457031 -2.96875 5.714844 -4.859375 5.488281 -7.695312 L 0.855469 -7.019531 C 1.214844 -2.023438 5.9375 0.855469 11.878906 0.855469 Z M 11.878906 0.855469 "/></g></g></g><g fill="#f6f6e9" fill-opacity="1"><g transform="translate(307.02274, 76.424965)"><g/></g></g><g fill="#f6f6e9" fill-opacity="1"><g transform="translate(317.144855, 76.424965)"><g><path d="M 13.632812 0.898438 C 21.144531 0.898438 26.09375 -4.003906 26.09375 -11.429688 C 26.09375 -18.898438 21.144531 -23.800781 13.632812 -23.800781 C 6.117188 -23.800781 1.167969 -18.898438 1.167969 -11.429688 C 1.167969 -4.003906 6.117188 0.898438 13.632812 0.898438 Z M 13.632812 -3.417969 C 9.089844 -3.417969 6.207031 -6.570312 6.207031 -11.429688 C 6.207031 -16.289062 9.089844 -19.390625 13.632812 -19.390625 C 18.132812 -19.390625 21.054688 -16.289062 21.054688 -11.429688 C 21.054688 -6.570312 18.132812 -3.417969 13.632812 -3.417969 Z M 13.632812 -3.417969 "/></g></g></g><g fill="#f6f6e9" fill-opacity="1"><g transform="translate(343.372789, 76.424965)"><g><path d="M 4.769531 0 L 9.808594 0 L 9.808594 -18.898438 L 18.898438 -18.898438 L 18.898438 -22.902344 L 9.808594 -22.902344 L 9.808594 -25.554688 C 9.808594 -28.121094 11.339844 -29.785156 13.585938 -29.785156 C 15.566406 -29.785156 17.367188 -28.34375 18.042969 -26.367188 L 20.695312 -29.066406 C 19.480469 -31.945312 16.511719 -33.96875 12.824219 -33.96875 C 7.917969 -33.96875 4.722656 -30.863281 4.722656 -26.140625 L 4.722656 -22.902344 L 0.0898438 -22.902344 L 0.0898438 -18.898438 L 4.722656 -18.898438 Z M 4.769531 0 "/></g></g></g><g fill="#f6f6e9" fill-opacity="1"><g transform="translate(38.400011, 121.424962)"><g><path d="M 2.609375 0 L 25.152344 0 L 25.152344 -4.679688 L 8.007812 -4.679688 L 8.007812 -14.261719 L 22.902344 -14.261719 L 22.902344 -18.535156 L 8.007812 -18.535156 L 8.007812 -27.21875 L 24.699219 -27.21875 L 24.699219 -31.898438 L 2.609375 -31.898438 Z M 2.609375 0 "/></g></g></g><g fill="#f6f6e9" fill-opacity="1"><g transform="translate(63.548229, 121.424962)"><g><path d="M 26.003906 0.855469 C 28.390625 0.855469 30.503906 -0.269531 31.945312 -1.980469 L 30.191406 -4.859375 C 29.515625 -3.824219 28.570312 -3.148438 27.671875 -3.148438 C 26.679688 -3.148438 26.050781 -3.914062 25.78125 -4.949219 L 24.476562 -9.71875 C 23.9375 -11.5625 22.945312 -13.003906 21.238281 -13.769531 L 21.238281 -13.8125 C 26.320312 -14.710938 29.378906 -18.042969 29.378906 -22.40625 C 29.378906 -28.074219 24.65625 -31.898438 17.636719 -31.898438 L 2.609375 -31.898438 L 2.609375 0 L 8.1875 0 L 8.1875 -12.777344 L 14.757812 -12.777344 C 16.78125 -12.777344 18.3125 -11.25 18.941406 -9.132812 L 20.605469 -3.417969 C 21.371094 -0.855469 23.171875 0.855469 26.003906 0.855469 Z M 8.1875 -17.050781 L 8.1875 -27.445312 L 17.140625 -27.445312 C 21.101562 -27.445312 23.757812 -25.285156 23.757812 -22.226562 C 23.757812 -19.121094 21.101562 -17.050781 17.140625 -17.050781 Z M 8.1875 -17.050781 "/></g></g></g><g fill="#f6f6e9" fill-opacity="1"><g transform="translate(94.544927, 121.424962)"><g><path d="M 18.535156 1.125 C 27.265625 1.125 33.472656 -4.050781 34.597656 -12.191406 L 29.289062 -13.136719 C 28.433594 -7.421875 24.25 -3.734375 18.582031 -3.734375 C 11.5625 -3.734375 7.109375 -8.503906 7.0625 -15.925781 C 7.0625 -23.394531 11.15625 -28.121094 17.636719 -28.121094 C 22.359375 -28.121094 25.78125 -25.105469 26.636719 -20.246094 L 31.855469 -21.550781 C 30.550781 -28.523438 24.972656 -33.023438 17.636719 -33.023438 C 7.695312 -33.023438 1.484375 -26.367188 1.484375 -15.925781 C 1.484375 -5.535156 8.097656 1.125 18.535156 1.125 Z M 18.535156 1.125 "/></g></g></g><g fill="#f6f6e9" fill-opacity="1"><g transform="translate(128.915755, 121.424962)"><g><path d="M 2.023438 -10.035156 L 18.042969 -10.035156 L 18.042969 -13.902344 L 2.023438 -13.902344 Z M 2.023438 -10.035156 "/></g></g></g><g fill="#f6f6e9" fill-opacity="1"><g transform="translate(147.945561, 121.424962)"><g><path d="M 16.46875 0 L 21.867188 0 L 21.867188 -6.972656 L 25.78125 -6.972656 L 25.78125 -11.25 L 21.867188 -11.25 L 21.867188 -31.898438 L 14.757812 -31.898438 L 0.808594 -10.214844 L 0.808594 -6.972656 L 16.46875 -6.972656 Z M 6.523438 -11.25 L 16.421875 -26.636719 L 16.46875 -26.636719 L 16.46875 -11.25 Z M 6.523438 -11.25 "/></g></g></g><g fill="#f6f6e9" fill-opacity="1"><g transform="translate(174.038535, 121.424962)"><g><path d="M 14.128906 1.035156 C 20.964844 1.035156 25.871094 -3.015625 25.871094 -8.636719 C 25.871094 -12.417969 23.621094 -15.386719 19.660156 -16.78125 L 19.660156 -16.871094 C 22.40625 -17.953125 24.117188 -20.695312 24.117188 -23.847656 C 24.117188 -28.976562 19.886719 -32.621094 14.039062 -32.621094 C 7.648438 -32.621094 3.105469 -28.121094 2.878906 -22.046875 L 8.367188 -21.238281 C 8.457031 -25.332031 10.796875 -28.164062 14.039062 -28.164062 C 16.78125 -28.164062 18.71875 -26.09375 18.71875 -23.171875 C 18.71875 -20.382812 17.050781 -18.402344 14.261719 -18.3125 L 12.371094 -18.222656 L 12.371094 -14.800781 L 14.667969 -14.710938 C 17.457031 -14.621094 20.113281 -12.371094 20.113281 -9.132812 C 20.113281 -5.9375 17.59375 -3.644531 13.902344 -3.644531 C 9.71875 -3.644531 6.882812 -6.839844 6.613281 -11.292969 L 1.394531 -10.078125 C 1.890625 -3.597656 7.0625 1.035156 14.128906 1.035156 Z M 14.128906 1.035156 "/></g></g></g><g fill="#f6f6e9" fill-opacity="1"><g transform="translate(200.581387, 121.424962)"><g><path d="M 14.128906 1.035156 C 20.964844 1.035156 25.871094 -3.015625 25.871094 -8.636719 C 25.871094 -12.417969 23.621094 -15.386719 19.660156 -16.78125 L 19.660156 -16.871094 C 22.40625 -17.953125 24.117188 -20.695312 24.117188 -23.847656 C 24.117188 -28.976562 19.886719 -32.621094 14.039062 -32.621094 C 7.648438 -32.621094 3.105469 -28.121094 2.878906 -22.046875 L 8.367188 -21.238281 C 8.457031 -25.332031 10.796875 -28.164062 14.039062 -28.164062 C 16.78125 -28.164062 18.71875 -26.09375 18.71875 -23.171875 C 18.71875 -20.382812 17.050781 -18.402344 14.261719 -18.3125 L 12.371094 -18.222656 L 12.371094 -14.800781 L 14.667969 -14.710938 C 17.457031 -14.621094 20.113281 -12.371094 20.113281 -9.132812 C 20.113281 -5.9375 17.59375 -3.644531 13.902344 -3.644531 C 9.71875 -3.644531 6.882812 -6.839844 6.613281 -11.292969 L 1.394531 -10.078125 C 1.890625 -3.597656 7.0625 1.035156 14.128906 1.035156 Z M 14.128906 1.035156 "/></g></g></g><g fill="#f6f6e9" fill-opacity="1"><g transform="translate(227.124239, 121.424962)"><g><path d="M 5.308594 0 L 11.472656 0 C 12.6875 -10.078125 16.289062 -19.347656 22.902344 -27.761719 L 22.902344 -31.898438 L 0.898438 -31.898438 L 0.898438 -27.21875 L 17.140625 -27.21875 C 10.574219 -19.210938 6.570312 -9.898438 5.308594 0 Z M 5.308594 0 "/></g></g></g></svg>